M48
; DRILL file {KiCad 9.0.9} date 2026-08-24T15:10:29-0700
; FORMAT={-:-/ absolute / metric / decimal}
; #@! TF.CreationDate,2026-08-24T15:10:29-07:00
; #@! TF.GenerationSoftware,Kicad,Pcbnew,9.0.9
; #@! TF.FileFunction,NonPlated,1,2,NPTH
FMAT,2
METRIC
; #@! TA.AperFunction,NonPlated,NPTH,ComponentDrill
T1C0.650
; #@! TA.AperFunction,NonPlated,NPTH,ComponentDrill
T2C1.750
; #@! TA.AperFunction,NonPlated,NPTH,ComponentDrill
T3C2.200
; #@! TA.AperFunction,NonPlated,NPTH,ComponentDrill
T4C3.048
; #@! TA.AperFunction,NonPlated,NPTH,ComponentDrill
T5C3.988
%
G90
G05
T1
X39.21Y-5.65
X44.99Y-5.65
T2
X8.445Y-31.7
X8.445Y-50.75
X8.445Y-69.8
X18.605Y-31.7
X18.605Y-50.75
X18.605Y-69.8
X27.495Y-31.7
X27.495Y-50.75
X27.495Y-69.8
X37.02Y-88.85
X37.655Y-31.7
X37.655Y-50.75
X37.655Y-69.8
X46.545Y-31.7
X46.545Y-50.75
X46.545Y-69.8
X47.18Y-88.85
X56.705Y-31.7
X56.705Y-50.75
X56.705Y-69.8
X65.595Y-31.7
X65.595Y-50.75
X65.595Y-69.8
X75.755Y-31.7
X75.755Y-50.75
X75.755Y-69.8
T3
X23.2Y-96.0
X42.1Y-41.25
X61.0Y-96.0
T4
X30.194Y-81.865
X54.006Y-81.865
T5
X13.525Y-31.7
X13.525Y-50.75
X13.525Y-69.8
X30.194Y-97.105
X32.575Y-31.7
X32.575Y-50.75
X32.575Y-69.8
X42.1Y-88.85
X51.625Y-31.7
X51.625Y-50.75
X51.625Y-69.8
X54.006Y-97.105
X70.675Y-31.7
X70.675Y-50.75
X70.675Y-69.8
M30
