  0
SECTION
  2
HEADER
  9
$ANGBASE
  50
0.0
  9
$ANGDIR
  70
1
  9
$MEASUREMENT
  70
1
  9
$INSUNITS
  70
4
  0
ENDSEC
  0
SECTION
  2
TABLES
  0
TABLE
  2
LTYPE
  70
4
  0
LTYPE
  5
40F
  2
CONTINUOUS
  70
0
  3
Solid line
  72
65
  73
0
  40
0.0
  0
LTYPE
  5
410
  2
DASHDOT
 70
0
  3
Dash Dot ____ _ ____ _
 72
65
 73
4
 40
2.0
 49
1.25
 49
-0.25
 49
0.25
 49
-0.25
  0
LTYPE
  5
411
  2
DASHED
 70
0
  3
Dashed __ __ __ __ __
 72
65
 73
2
 40
0.75
 49
0.5
 49
-0.25
  0
LTYPE
  5
43B
  2
DOTTED
 70
0
  3
Dotted .  .  .  .
 72
65
 73
2
 40
0.2
 49
0.0
 49
-0.2
  0
ENDTAB
  0
TABLE
  2
STYLE
  70
4
  0
STYLE
  2
KICAD
  70
0
  40
0
  41
1
  42
1
  50
0
  71
0
  3
isocp.shx
  0
STYLE
  2
KICADB
  70
0
  40
0
  41
1
  42
1
  50
0
  71
0
  3
isocp.shx
  0
STYLE
  2
KICADI
  70
0
  40
0
  41
1
  42
1
  50
15
  71
0
  3
isocp.shx
  0
STYLE
  2
KICADBI
  70
0
  40
0
  41
1
  42
1
  50
15
  71
0
  3
isocp.shx
  0
ENDTAB
  0
TABLE
  2
LAYER
  70
35
  0
LAYER
  2
BLACK
  70
0
  62
7
  6
CONTINUOUS
  0
LAYER
  2
GRAY1
  70
0
  62
251
  6
CONTINUOUS
  0
LAYER
  2
GRAY2
  70
0
  62
8
  6
CONTINUOUS
  0
LAYER
  2
GRAY3
  70
0
  62
9
  6
CONTINUOUS
  0
LAYER
  2
WHITE
  70
0
  62
7
  6
CONTINUOUS
  0
LAYER
  2
LYELLOW
  70
0
  62
51
  6
CONTINUOUS
  0
LAYER
  2
LORANGE
  70
0
  62
41
  6
CONTINUOUS
  0
LAYER
  2
BLUE1
  70
0
  62
178
  6
CONTINUOUS
  0
LAYER
  2
GREEN1
  70
0
  62
98
  6
CONTINUOUS
  0
LAYER
  2
CYAN1
  70
0
  62
138
  6
CONTINUOUS
  0
LAYER
  2
RED1
  70
0
  62
18
  6
CONTINUOUS
  0
LAYER
  2
MAGENTA1
  70
0
  62
228
  6
CONTINUOUS
  0
LAYER
  2
BROWN1
  70
0
  62
58
  6
CONTINUOUS
  0
LAYER
  2
ORANGE1
  70
0
  62
34
  6
CONTINUOUS
  0
LAYER
  2
BLUE2
  70
0
  62
5
  6
CONTINUOUS
  0
LAYER
  2
GREEN2
  70
0
  62
3
  6
CONTINUOUS
  0
LAYER
  2
CYAN2
  70
0
  62
4
  6
CONTINUOUS
  0
LAYER
  2
RED2
  70
0
  62
1
  6
CONTINUOUS
  0
LAYER
  2
MAGENTA2
  70
0
  62
6
  6
CONTINUOUS
  0
LAYER
  2
BROWN2
  70
0
  62
54
  6
CONTINUOUS
  0
LAYER
  2
ORANGE2
  70
0
  62
42
  6
CONTINUOUS
  0
LAYER
  2
BLUE3
  70
0
  62
171
  6
CONTINUOUS
  0
LAYER
  2
GREEN3
  70
0
  62
91
  6
CONTINUOUS
  0
LAYER
  2
CYAN3
  70
0
  62
131
  6
CONTINUOUS
  0
LAYER
  2
RED3
  70
0
  62
11
  6
CONTINUOUS
  0
LAYER
  2
MAGENTA3
  70
0
  62
221
  6
CONTINUOUS
  0
LAYER
  2
YELLOW3
  70
0
  62
2
  6
CONTINUOUS
  0
LAYER
  2
ORANGE3
  70
0
  62
32
  6
CONTINUOUS
  0
LAYER
  2
BLUE4
  70
0
  62
5
  6
CONTINUOUS
  0
LAYER
  2
GREEN4
  70
0
  62
3
  6
CONTINUOUS
  0
LAYER
  2
CYAN4
  70
0
  62
4
  6
CONTINUOUS
  0
LAYER
  2
RED4
  70
0
  62
1
  6
CONTINUOUS
  0
LAYER
  2
MAGENTA4
  70
0
  62
6
  6
CONTINUOUS
  0
LAYER
  2
YELLOW4
  70
0
  62
2
  6
CONTINUOUS
  0
LAYER
  2
ORANGE4
  70
0
  62
40
  6
CONTINUOUS
  0
ENDTAB
  0
ENDSEC
  0
SECTION
  2
ENTITIES
0
LINE
8
WHITE
6
CONTINUOUS
10
5.2999999999999998
20
0.
11
78.8999999999999915
21
0.
0
ARC
8
WHITE
10
78.9000800000000027
20
-5.3999199999999998
40
5.3999200005926014
50
-0.00084884
51
90.00084884
0
LINE
8
WHITE
6
CONTINUOUS
10
84.2999999999999972
20
-5.3999999999999995
11
84.2999999999999972
21
-94.5999999999999943
0
ARC
8
WHITE
10
78.9000999999999948
20
-94.6000999999999976
40
5.3999000009259426
50
-90.00106105
51
0.00106105
0
LINE
8
WHITE
6
CONTINUOUS
10
78.8999999999999915
20
-100.
11
5.2999999999999998
21
-100.
0
ARC
8
WHITE
10
5.2999200000000002
20
-94.6000799999999913
40
5.3999200005926014
50
-180.00084884
51
-89.99915116
0
LINE
8
WHITE
6
CONTINUOUS
10
-0.1
20
-94.5999999999999943
11
-0.1
21
-5.3999999999999995
0
ARC
8
WHITE
10
5.2999200000000002
20
-5.3999199999999998
40
5.3999200005926014
50
-270.00084884
51
-179.99915116
0
LINE
8
WHITE
6
CONTINUOUS
10
6.5249999999999995
20
-24.6999999999999993
11
20.5249999999999986
21
-24.6999999999999993
0
LINE
8
WHITE
6
CONTINUOUS
10
20.5249999999999986
20
-24.6999999999999993
11
20.5249999999999986
21
-38.6999999999999957
0
LINE
8
WHITE
6
CONTINUOUS
10
20.5249999999999986
20
-38.6999999999999957
11
6.5249999999999995
21
-38.6999999999999957
0
LINE
8
WHITE
6
CONTINUOUS
10
6.5249999999999995
20
-38.6999999999999957
11
6.5249999999999995
21
-24.6999999999999993
0
LINE
8
WHITE
6
CONTINUOUS
10
25.5749999999999993
20
-24.6999999999999993
11
39.5749999999999957
21
-24.6999999999999993
0
LINE
8
WHITE
6
CONTINUOUS
10
39.5749999999999957
20
-24.6999999999999993
11
39.5749999999999957
21
-38.6999999999999957
0
LINE
8
WHITE
6
CONTINUOUS
10
39.5749999999999957
20
-38.6999999999999957
11
25.5749999999999993
21
-38.6999999999999957
0
LINE
8
WHITE
6
CONTINUOUS
10
25.5749999999999993
20
-38.6999999999999957
11
25.5749999999999993
21
-24.6999999999999993
0
LINE
8
WHITE
6
CONTINUOUS
10
44.625
20
-24.6999999999999993
11
58.625
21
-24.6999999999999993
0
LINE
8
WHITE
6
CONTINUOUS
10
58.625
20
-24.6999999999999993
11
58.625
21
-38.6999999999999957
0
LINE
8
WHITE
6
CONTINUOUS
10
58.625
20
-38.6999999999999957
11
44.625
21
-38.6999999999999957
0
LINE
8
WHITE
6
CONTINUOUS
10
44.625
20
-38.6999999999999957
11
44.625
21
-24.6999999999999993
0
LINE
8
WHITE
6
CONTINUOUS
10
63.6749999999999972
20
-24.6999999999999993
11
77.6749999999999972
21
-24.6999999999999993
0
LINE
8
WHITE
6
CONTINUOUS
10
77.6749999999999972
20
-24.6999999999999993
11
77.6749999999999972
21
-38.6999999999999957
0
LINE
8
WHITE
6
CONTINUOUS
10
77.6749999999999972
20
-38.6999999999999957
11
63.6749999999999972
21
-38.6999999999999957
0
LINE
8
WHITE
6
CONTINUOUS
10
63.6749999999999972
20
-38.6999999999999957
11
63.6749999999999972
21
-24.6999999999999993
0
LINE
8
WHITE
6
CONTINUOUS
10
6.5249999999999995
20
-43.75
11
20.5249999999999986
21
-43.75
0
LINE
8
WHITE
6
CONTINUOUS
10
20.5249999999999986
20
-43.75
11
20.5249999999999986
21
-57.75
0
LINE
8
WHITE
6
CONTINUOUS
10
20.5249999999999986
20
-57.75
11
6.5249999999999995
21
-57.75
0
LINE
8
WHITE
6
CONTINUOUS
10
6.5249999999999995
20
-57.75
11
6.5249999999999995
21
-43.75
0
LINE
8
WHITE
6
CONTINUOUS
10
25.5749999999999993
20
-43.75
11
39.5749999999999957
21
-43.75
0
LINE
8
WHITE
6
CONTINUOUS
10
39.5749999999999957
20
-43.75
11
39.5749999999999957
21
-57.75
0
LINE
8
WHITE
6
CONTINUOUS
10
39.5749999999999957
20
-57.75
11
25.5749999999999993
21
-57.75
0
LINE
8
WHITE
6
CONTINUOUS
10
25.5749999999999993
20
-57.75
11
25.5749999999999993
21
-43.75
0
LINE
8
WHITE
6
CONTINUOUS
10
44.625
20
-43.75
11
58.625
21
-43.75
0
LINE
8
WHITE
6
CONTINUOUS
10
58.625
20
-43.75
11
58.625
21
-57.75
0
LINE
8
WHITE
6
CONTINUOUS
10
58.625
20
-57.75
11
44.625
21
-57.75
0
LINE
8
WHITE
6
CONTINUOUS
10
44.625
20
-57.75
11
44.625
21
-43.75
0
LINE
8
WHITE
6
CONTINUOUS
10
63.6749999999999972
20
-43.75
11
77.6749999999999972
21
-43.75
0
LINE
8
WHITE
6
CONTINUOUS
10
77.6749999999999972
20
-43.75
11
77.6749999999999972
21
-57.75
0
LINE
8
WHITE
6
CONTINUOUS
10
77.6749999999999972
20
-57.75
11
63.6749999999999972
21
-57.75
0
LINE
8
WHITE
6
CONTINUOUS
10
63.6749999999999972
20
-57.75
11
63.6749999999999972
21
-43.75
0
LINE
8
WHITE
6
CONTINUOUS
10
6.5249999999999995
20
-62.7999999999999972
11
20.5249999999999986
21
-62.7999999999999972
0
LINE
8
WHITE
6
CONTINUOUS
10
20.5249999999999986
20
-62.7999999999999972
11
20.5249999999999986
21
-76.7999999999999972
0
LINE
8
WHITE
6
CONTINUOUS
10
20.5249999999999986
20
-76.7999999999999972
11
6.5249999999999995
21
-76.7999999999999972
0
LINE
8
WHITE
6
CONTINUOUS
10
6.5249999999999995
20
-76.7999999999999972
11
6.5249999999999995
21
-62.7999999999999972
0
LINE
8
WHITE
6
CONTINUOUS
10
25.5749999999999993
20
-62.7999999999999972
11
39.5749999999999957
21
-62.7999999999999972
0
LINE
8
WHITE
6
CONTINUOUS
10
39.5749999999999957
20
-62.7999999999999972
11
39.5749999999999957
21
-76.7999999999999972
0
LINE
8
WHITE
6
CONTINUOUS
10
39.5749999999999957
20
-76.7999999999999972
11
25.5749999999999993
21
-76.7999999999999972
0
LINE
8
WHITE
6
CONTINUOUS
10
25.5749999999999993
20
-76.7999999999999972
11
25.5749999999999993
21
-62.7999999999999972
0
LINE
8
WHITE
6
CONTINUOUS
10
44.625
20
-62.7999999999999972
11
58.625
21
-62.7999999999999972
0
LINE
8
WHITE
6
CONTINUOUS
10
58.625
20
-62.7999999999999972
11
58.625
21
-76.7999999999999972
0
LINE
8
WHITE
6
CONTINUOUS
10
58.625
20
-76.7999999999999972
11
44.625
21
-76.7999999999999972
0
LINE
8
WHITE
6
CONTINUOUS
10
44.625
20
-76.7999999999999972
11
44.625
21
-62.7999999999999972
0
LINE
8
WHITE
6
CONTINUOUS
10
63.6749999999999972
20
-62.7999999999999972
11
77.6749999999999972
21
-62.7999999999999972
0
LINE
8
WHITE
6
CONTINUOUS
10
77.6749999999999972
20
-62.7999999999999972
11
77.6749999999999972
21
-76.7999999999999972
0
LINE
8
WHITE
6
CONTINUOUS
10
77.6749999999999972
20
-76.7999999999999972
11
63.6749999999999972
21
-76.7999999999999972
0
LINE
8
WHITE
6
CONTINUOUS
10
63.6749999999999972
20
-76.7999999999999972
11
63.6749999999999972
21
-62.7999999999999972
0
LINE
8
WHITE
6
CONTINUOUS
10
35.1000000000000014
20
-81.8499999999999943
11
49.0999999999999943
21
-81.8499999999999943
0
LINE
8
WHITE
6
CONTINUOUS
10
49.0999999999999943
20
-81.8499999999999943
11
49.0999999999999943
21
-95.8499999999999943
0
LINE
8
WHITE
6
CONTINUOUS
10
49.0999999999999943
20
-95.8499999999999943
11
35.1000000000000014
21
-95.8499999999999943
0
LINE
8
WHITE
6
CONTINUOUS
10
35.1000000000000014
20
-95.8499999999999943
11
35.1000000000000014
21
-81.8499999999999943
0
LINE
8
WHITE
6
CONTINUOUS
10
26.8369999999999997
20
-83.3199999999999932
11
33.4870000000000019
21
-83.3199999999999932
0
LINE
8
WHITE
6
CONTINUOUS
10
33.4870000000000019
20
-83.3199999999999932
11
33.4870000000000019
21
-95.6199999999999903
0
LINE
8
WHITE
6
CONTINUOUS
10
33.4870000000000019
20
-95.6199999999999903
11
26.8369999999999997
21
-95.6199999999999903
0
LINE
8
WHITE
6
CONTINUOUS
10
26.8369999999999997
20
-95.6199999999999903
11
26.8369999999999997
21
-83.3199999999999932
0
LINE
8
WHITE
6
CONTINUOUS
10
50.713000000000001
20
-83.3199999999999932
11
57.3629999999999995
21
-83.3199999999999932
0
LINE
8
WHITE
6
CONTINUOUS
10
57.3629999999999995
20
-83.3199999999999932
11
57.3629999999999995
21
-95.6199999999999903
0
LINE
8
WHITE
6
CONTINUOUS
10
57.3629999999999995
20
-95.6199999999999903
11
50.713000000000001
21
-95.6199999999999903
0
LINE
8
WHITE
6
CONTINUOUS
10
50.713000000000001
20
-95.6199999999999903
11
50.713000000000001
21
-83.3199999999999932
0
LINE
8
WHITE
6
CONTINUOUS
10
8.5250000000000004
20
-6.
11
19.5249999999999986
21
-6.
0
ARC
8
WHITE
10
19.5251400000000004
20
-7.49986
40
1.4998600065339431
50
-0.00534811
51
90.00534811
0
LINE
8
WHITE
6
CONTINUOUS
10
21.0249999999999986
20
-7.5
11
21.0249999999999986
21
-17.5
0
ARC
8
WHITE
10
19.5250999999999983
20
-17.5000999999999998
40
1.4999000033335554
50
-90.00381997
51
0.00381997
0
LINE
8
WHITE
6
CONTINUOUS
10
19.5249999999999986
20
-19.
11
8.5250000000000004
21
-19.
0
ARC
8
WHITE
10
8.5248600000000003
20
-17.5001399999999983
40
1.4998600065339431
50
-180.00534811
51
-89.99465189
0
LINE
8
WHITE
6
CONTINUOUS
10
7.0249999999999995
20
-17.5
11
7.0249999999999995
21
-7.5
0
ARC
8
WHITE
10
8.5248600000000003
20
-7.49986
40
1.4998600065339431
50
-270.00534811
51
-179.99465189
0
LINE
8
WHITE
6
CONTINUOUS
10
60.4099999999999966
20
-2.5699999999999998
11
75.8599999999999994
21
-2.5699999999999998
0
ARC
8
WHITE
10
75.8601000000000028
20
-4.0698999999999996
40
1.4999000033335554
50
-0.00381997
51
90.00381997
0
LINE
8
WHITE
6
CONTINUOUS
10
77.3599999999999994
20
-4.0699999999999994
11
77.3599999999999994
21
-19.5199999999999996
0
ARC
8
WHITE
10
75.8601000000000028
20
-19.5200999999999993
40
1.4999000033335554
50
-90.00381997
51
0.00381997
0
LINE
8
WHITE
6
CONTINUOUS
10
75.8599999999999994
20
-21.0199999999999996
11
60.4099999999999966
21
-21.0199999999999996
0
ARC
8
WHITE
10
60.4099000000000004
20
-19.5200999999999993
40
1.4999000033335554
50
-180.00381997
51
-89.99618003
0
LINE
8
WHITE
6
CONTINUOUS
10
58.9099999999999966
20
-19.5199999999999996
11
58.9099999999999966
21
-4.0699999999999994
0
ARC
8
WHITE
10
60.4099000000000004
20
-4.0698999999999996
40
1.4999000033335554
50
-270.00381997
51
-179.99618003
0
CIRCLE
8
WHITE
10
13.5249999999999986
20
-79.3499999999999943
40
1.5
0
CIRCLE
8
WHITE
10
3.6999999999999997
20
-3.6999999999999997
40
1.5999999999999999
0
CIRCLE
8
WHITE
10
80.5
20
-3.6999999999999997
40
1.5999999999999999
0
CIRCLE
8
WHITE
10
3.6999999999999997
20
-96.2999999999999972
40
1.5999999999999999
0
CIRCLE
8
WHITE
10
80.5
20
-96.2999999999999972
40
1.5999999999999999
  0
ENDSEC
  0
EOF
