  0
SECTION
  2
HEADER
  9
$ANGBASE
  50
0.0
  9
$ANGDIR
  70
1
  9
$MEASUREMENT
  70
0
  9
$INSUNITS
  70
1
  0
ENDSEC
  0
SECTION
  2
TABLES
  0
TABLE
  2
LTYPE
  70
4
  0
LTYPE
  5
40F
  2
CONTINUOUS
  70
0
  3
Solid line
  72
65
  73
0
  40
0.0
  0
LTYPE
  5
410
  2
DASHDOT
 70
0
  3
Dash Dot ____ _ ____ _
 72
65
 73
4
 40
2.0
 49
1.25
 49
-0.25
 49
0.25
 49
-0.25
  0
LTYPE
  5
411
  2
DASHED
 70
0
  3
Dashed __ __ __ __ __
 72
65
 73
2
 40
0.75
 49
0.5
 49
-0.25
  0
LTYPE
  5
43B
  2
DOTTED
 70
0
  3
Dotted .  .  .  .
 72
65
 73
2
 40
0.2
 49
0.0
 49
-0.2
  0
ENDTAB
  0
TABLE
  2
STYLE
  70
4
  0
STYLE
  2
KICAD
  70
0
  40
0
  41
1
  42
1
  50
0
  71
0
  3
isocp.shx
  0
STYLE
  2
KICADB
  70
0
  40
0
  41
1
  42
1
  50
0
  71
0
  3
isocp.shx
  0
STYLE
  2
KICADI
  70
0
  40
0
  41
1
  42
1
  50
15
  71
0
  3
isocp.shx
  0
STYLE
  2
KICADBI
  70
0
  40
0
  41
1
  42
1
  50
15
  71
0
  3
isocp.shx
  0
ENDTAB
  0
TABLE
  2
LAYER
  70
35
  0
LAYER
  2
BLACK
  70
0
  62
7
  6
CONTINUOUS
  0
LAYER
  2
GRAY1
  70
0
  62
251
  6
CONTINUOUS
  0
LAYER
  2
GRAY2
  70
0
  62
8
  6
CONTINUOUS
  0
LAYER
  2
GRAY3
  70
0
  62
9
  6
CONTINUOUS
  0
LAYER
  2
WHITE
  70
0
  62
7
  6
CONTINUOUS
  0
LAYER
  2
LYELLOW
  70
0
  62
51
  6
CONTINUOUS
  0
LAYER
  2
LORANGE
  70
0
  62
41
  6
CONTINUOUS
  0
LAYER
  2
BLUE1
  70
0
  62
178
  6
CONTINUOUS
  0
LAYER
  2
GREEN1
  70
0
  62
98
  6
CONTINUOUS
  0
LAYER
  2
CYAN1
  70
0
  62
138
  6
CONTINUOUS
  0
LAYER
  2
RED1
  70
0
  62
18
  6
CONTINUOUS
  0
LAYER
  2
MAGENTA1
  70
0
  62
228
  6
CONTINUOUS
  0
LAYER
  2
BROWN1
  70
0
  62
58
  6
CONTINUOUS
  0
LAYER
  2
ORANGE1
  70
0
  62
34
  6
CONTINUOUS
  0
LAYER
  2
BLUE2
  70
0
  62
5
  6
CONTINUOUS
  0
LAYER
  2
GREEN2
  70
0
  62
3
  6
CONTINUOUS
  0
LAYER
  2
CYAN2
  70
0
  62
4
  6
CONTINUOUS
  0
LAYER
  2
RED2
  70
0
  62
1
  6
CONTINUOUS
  0
LAYER
  2
MAGENTA2
  70
0
  62
6
  6
CONTINUOUS
  0
LAYER
  2
BROWN2
  70
0
  62
54
  6
CONTINUOUS
  0
LAYER
  2
ORANGE2
  70
0
  62
42
  6
CONTINUOUS
  0
LAYER
  2
BLUE3
  70
0
  62
171
  6
CONTINUOUS
  0
LAYER
  2
GREEN3
  70
0
  62
91
  6
CONTINUOUS
  0
LAYER
  2
CYAN3
  70
0
  62
131
  6
CONTINUOUS
  0
LAYER
  2
RED3
  70
0
  62
11
  6
CONTINUOUS
  0
LAYER
  2
MAGENTA3
  70
0
  62
221
  6
CONTINUOUS
  0
LAYER
  2
YELLOW3
  70
0
  62
2
  6
CONTINUOUS
  0
LAYER
  2
ORANGE3
  70
0
  62
32
  6
CONTINUOUS
  0
LAYER
  2
BLUE4
  70
0
  62
5
  6
CONTINUOUS
  0
LAYER
  2
GREEN4
  70
0
  62
3
  6
CONTINUOUS
  0
LAYER
  2
CYAN4
  70
0
  62
4
  6
CONTINUOUS
  0
LAYER
  2
RED4
  70
0
  62
1
  6
CONTINUOUS
  0
LAYER
  2
MAGENTA4
  70
0
  62
6
  6
CONTINUOUS
  0
LAYER
  2
YELLOW4
  70
0
  62
2
  6
CONTINUOUS
  0
LAYER
  2
ORANGE4
  70
0
  62
40
  6
CONTINUOUS
  0
ENDTAB
  0
ENDSEC
  0
SECTION
  2
ENTITIES
0
LINE
8
WHITE
6
CONTINUOUS
10
0.2086614173228346
20
0.0039370078740157
11
3.106299212598425
21
0.0039370078740157
0
ARC
8
WHITE
10
3.1063023622047243
20
-0.2086582677165354
40
0.2125952756138819
50
-0.00084884
51
90.00084884
0
LINE
8
WHITE
6
CONTINUOUS
10
3.3188976377952755
20
-0.2086614173228346
11
3.3188976377952755
21
-3.7283464566929134
0
ARC
8
WHITE
10
3.1063031496062989
20
-3.7283503937007874
40
0.2125944882254308
50
-90.00106105
51
0.00106105
0
LINE
8
WHITE
6
CONTINUOUS
10
3.106299212598425
20
-3.9409448818897639
11
0.2086614173228346
21
-3.9409448818897639
0
ARC
8
WHITE
10
0.2086582677165354
20
-3.7283496062992123
40
0.2125952756138819
50
-180.00084884
51
-89.99915116
0
LINE
8
WHITE
6
CONTINUOUS
10
-0.0039370078740157
20
-3.7283464566929134
11
-0.0039370078740157
21
-0.2086614173228346
0
ARC
8
WHITE
10
0.2086582677165354
20
-0.2086582677165354
40
0.2125952756138819
50
-270.00084884
51
-179.99915116
0
LINE
8
WHITE
6
CONTINUOUS
10
0.2568897637795275
20
-0.9724409448818897
11
0.8080708661417323
21
-0.9724409448818897
0
LINE
8
WHITE
6
CONTINUOUS
10
0.8080708661417323
20
-0.9724409448818897
11
0.8080708661417323
21
-1.5236220472440944
0
LINE
8
WHITE
6
CONTINUOUS
10
0.8080708661417323
20
-1.5236220472440944
11
0.2568897637795275
21
-1.5236220472440944
0
LINE
8
WHITE
6
CONTINUOUS
10
0.2568897637795275
20
-1.5236220472440944
11
0.2568897637795275
21
-0.9724409448818897
0
LINE
8
WHITE
6
CONTINUOUS
10
1.0068897637795275
20
-0.9724409448818897
11
1.5580708661417322
21
-0.9724409448818897
0
LINE
8
WHITE
6
CONTINUOUS
10
1.5580708661417322
20
-0.9724409448818897
11
1.5580708661417322
21
-1.5236220472440944
0
LINE
8
WHITE
6
CONTINUOUS
10
1.5580708661417322
20
-1.5236220472440944
11
1.0068897637795275
21
-1.5236220472440944
0
LINE
8
WHITE
6
CONTINUOUS
10
1.0068897637795275
20
-1.5236220472440944
11
1.0068897637795275
21
-0.9724409448818897
0
LINE
8
WHITE
6
CONTINUOUS
10
1.7568897637795275
20
-0.9724409448818897
11
2.3080708661417324
21
-0.9724409448818897
0
LINE
8
WHITE
6
CONTINUOUS
10
2.3080708661417324
20
-0.9724409448818897
11
2.3080708661417324
21
-1.5236220472440944
0
LINE
8
WHITE
6
CONTINUOUS
10
2.3080708661417324
20
-1.5236220472440944
11
1.7568897637795275
21
-1.5236220472440944
0
LINE
8
WHITE
6
CONTINUOUS
10
1.7568897637795275
20
-1.5236220472440944
11
1.7568897637795275
21
-0.9724409448818897
0
LINE
8
WHITE
6
CONTINUOUS
10
2.5068897637795273
20
-0.9724409448818897
11
3.0580708661417324
21
-0.9724409448818897
0
LINE
8
WHITE
6
CONTINUOUS
10
3.0580708661417324
20
-0.9724409448818897
11
3.0580708661417324
21
-1.5236220472440944
0
LINE
8
WHITE
6
CONTINUOUS
10
3.0580708661417324
20
-1.5236220472440944
11
2.5068897637795273
21
-1.5236220472440944
0
LINE
8
WHITE
6
CONTINUOUS
10
2.5068897637795273
20
-1.5236220472440944
11
2.5068897637795273
21
-0.9724409448818897
0
LINE
8
WHITE
6
CONTINUOUS
10
0.2568897637795275
20
-1.7224409448818898
11
0.8080708661417323
21
-1.7224409448818898
0
LINE
8
WHITE
6
CONTINUOUS
10
0.8080708661417323
20
-1.7224409448818898
11
0.8080708661417323
21
-2.2736220472440944
0
LINE
8
WHITE
6
CONTINUOUS
10
0.8080708661417323
20
-2.2736220472440944
11
0.2568897637795275
21
-2.2736220472440944
0
LINE
8
WHITE
6
CONTINUOUS
10
0.2568897637795275
20
-2.2736220472440944
11
0.2568897637795275
21
-1.7224409448818898
0
LINE
8
WHITE
6
CONTINUOUS
10
1.0068897637795275
20
-1.7224409448818898
11
1.5580708661417322
21
-1.7224409448818898
0
LINE
8
WHITE
6
CONTINUOUS
10
1.5580708661417322
20
-1.7224409448818898
11
1.5580708661417322
21
-2.2736220472440944
0
LINE
8
WHITE
6
CONTINUOUS
10
1.5580708661417322
20
-2.2736220472440944
11
1.0068897637795275
21
-2.2736220472440944
0
LINE
8
WHITE
6
CONTINUOUS
10
1.0068897637795275
20
-2.2736220472440944
11
1.0068897637795275
21
-1.7224409448818898
0
LINE
8
WHITE
6
CONTINUOUS
10
1.7568897637795275
20
-1.7224409448818898
11
2.3080708661417324
21
-1.7224409448818898
0
LINE
8
WHITE
6
CONTINUOUS
10
2.3080708661417324
20
-1.7224409448818898
11
2.3080708661417324
21
-2.2736220472440944
0
LINE
8
WHITE
6
CONTINUOUS
10
2.3080708661417324
20
-2.2736220472440944
11
1.7568897637795275
21
-2.2736220472440944
0
LINE
8
WHITE
6
CONTINUOUS
10
1.7568897637795275
20
-2.2736220472440944
11
1.7568897637795275
21
-1.7224409448818898
0
LINE
8
WHITE
6
CONTINUOUS
10
2.5068897637795273
20
-1.7224409448818898
11
3.0580708661417324
21
-1.7224409448818898
0
LINE
8
WHITE
6
CONTINUOUS
10
3.0580708661417324
20
-1.7224409448818898
11
3.0580708661417324
21
-2.2736220472440944
0
LINE
8
WHITE
6
CONTINUOUS
10
3.0580708661417324
20
-2.2736220472440944
11
2.5068897637795273
21
-2.2736220472440944
0
LINE
8
WHITE
6
CONTINUOUS
10
2.5068897637795273
20
-2.2736220472440944
11
2.5068897637795273
21
-1.7224409448818898
0
LINE
8
WHITE
6
CONTINUOUS
10
0.2568897637795275
20
-2.4724409448818898
11
0.8080708661417323
21
-2.4724409448818898
0
LINE
8
WHITE
6
CONTINUOUS
10
0.8080708661417323
20
-2.4724409448818898
11
0.8080708661417323
21
-3.0236220472440944
0
LINE
8
WHITE
6
CONTINUOUS
10
0.8080708661417323
20
-3.0236220472440944
11
0.2568897637795275
21
-3.0236220472440944
0
LINE
8
WHITE
6
CONTINUOUS
10
0.2568897637795275
20
-3.0236220472440944
11
0.2568897637795275
21
-2.4724409448818898
0
LINE
8
WHITE
6
CONTINUOUS
10
1.0068897637795275
20
-2.4724409448818898
11
1.5580708661417322
21
-2.4724409448818898
0
LINE
8
WHITE
6
CONTINUOUS
10
1.5580708661417322
20
-2.4724409448818898
11
1.5580708661417322
21
-3.0236220472440944
0
LINE
8
WHITE
6
CONTINUOUS
10
1.5580708661417322
20
-3.0236220472440944
11
1.0068897637795275
21
-3.0236220472440944
0
LINE
8
WHITE
6
CONTINUOUS
10
1.0068897637795275
20
-3.0236220472440944
11
1.0068897637795275
21
-2.4724409448818898
0
LINE
8
WHITE
6
CONTINUOUS
10
1.7568897637795275
20
-2.4724409448818898
11
2.3080708661417324
21
-2.4724409448818898
0
LINE
8
WHITE
6
CONTINUOUS
10
2.3080708661417324
20
-2.4724409448818898
11
2.3080708661417324
21
-3.0236220472440944
0
LINE
8
WHITE
6
CONTINUOUS
10
2.3080708661417324
20
-3.0236220472440944
11
1.7568897637795275
21
-3.0236220472440944
0
LINE
8
WHITE
6
CONTINUOUS
10
1.7568897637795275
20
-3.0236220472440944
11
1.7568897637795275
21
-2.4724409448818898
0
LINE
8
WHITE
6
CONTINUOUS
10
2.5068897637795273
20
-2.4724409448818898
11
3.0580708661417324
21
-2.4724409448818898
0
LINE
8
WHITE
6
CONTINUOUS
10
3.0580708661417324
20
-2.4724409448818898
11
3.0580708661417324
21
-3.0236220472440944
0
LINE
8
WHITE
6
CONTINUOUS
10
3.0580708661417324
20
-3.0236220472440944
11
2.5068897637795273
21
-3.0236220472440944
0
LINE
8
WHITE
6
CONTINUOUS
10
2.5068897637795273
20
-3.0236220472440944
11
2.5068897637795273
21
-2.4724409448818898
0
LINE
8
WHITE
6
CONTINUOUS
10
1.3818897637795275
20
-3.2224409448818898
11
1.9330708661417322
21
-3.2224409448818898
0
LINE
8
WHITE
6
CONTINUOUS
10
1.9330708661417322
20
-3.2224409448818898
11
1.9330708661417322
21
-3.7736220472440944
0
LINE
8
WHITE
6
CONTINUOUS
10
1.9330708661417322
20
-3.7736220472440944
11
1.3818897637795275
21
-3.7736220472440944
0
LINE
8
WHITE
6
CONTINUOUS
10
1.3818897637795275
20
-3.7736220472440944
11
1.3818897637795275
21
-3.2224409448818898
0
LINE
8
WHITE
6
CONTINUOUS
10
1.0565748031496063
20
-3.2803149606299211
11
1.3183858267716535
21
-3.2803149606299211
0
LINE
8
WHITE
6
CONTINUOUS
10
1.3183858267716535
20
-3.2803149606299211
11
1.3183858267716535
21
-3.7645669291338582
0
LINE
8
WHITE
6
CONTINUOUS
10
1.3183858267716535
20
-3.7645669291338582
11
1.0565748031496063
21
-3.7645669291338582
0
LINE
8
WHITE
6
CONTINUOUS
10
1.0565748031496063
20
-3.7645669291338582
11
1.0565748031496063
21
-3.2803149606299211
0
LINE
8
WHITE
6
CONTINUOUS
10
1.9965748031496062
20
-3.2803149606299211
11
2.2583858267716534
21
-3.2803149606299211
0
LINE
8
WHITE
6
CONTINUOUS
10
2.2583858267716534
20
-3.2803149606299211
11
2.2583858267716534
21
-3.7645669291338582
0
LINE
8
WHITE
6
CONTINUOUS
10
2.2583858267716534
20
-3.7645669291338582
11
1.9965748031496062
21
-3.7645669291338582
0
LINE
8
WHITE
6
CONTINUOUS
10
1.9965748031496062
20
-3.7645669291338582
11
1.9965748031496062
21
-3.2803149606299211
0
LINE
8
WHITE
6
CONTINUOUS
10
0.3356299212598425
20
-0.2362204724409449
11
0.7293307086614174
21
-0.2362204724409449
0
ARC
8
WHITE
10
0.729336220472441
20
-0.2952700787401575
40
0.0590496065564544
50
-0.00534811
51
90.00534811
0
LINE
8
WHITE
6
CONTINUOUS
10
0.7883858267716535
20
-0.2952755905511811
11
0.7883858267716535
21
-0.6889763779527559
0
ARC
8
WHITE
10
0.7293346456692913
20
-0.6889803149606299
40
0.0590511812336045
50
-90.00381997
51
0.00381997
0
LINE
8
WHITE
6
CONTINUOUS
10
0.7293307086614174
20
-0.7480314960629921
11
0.3356299212598425
21
-0.7480314960629921
0
ARC
8
WHITE
10
0.3356244094488189
20
-0.6889818897637795
40
0.0590496065564544
50
-180.00534811
51
-89.99465189
0
LINE
8
WHITE
6
CONTINUOUS
10
0.2765748031496063
20
-0.6889763779527559
11
0.2765748031496063
21
-0.2952755905511811
0
ARC
8
WHITE
10
0.3356244094488189
20
-0.2952700787401575
40
0.0590496065564544
50
-270.00534811
51
-179.99465189
0
LINE
8
WHITE
6
CONTINUOUS
10
2.3783464566929133
20
-0.1011811023622047
11
2.9866141732283462
21
-0.1011811023622047
0
ARC
8
WHITE
10
2.9866181102362206
20
-0.1602322834645669
40
0.0590511812336045
50
-0.00381997
51
90.00381997
0
LINE
8
WHITE
6
CONTINUOUS
10
3.0456692913385828
20
-0.1602362204724409
11
3.0456692913385828
21
-0.768503937007874
0
ARC
8
WHITE
10
2.9866181102362206
20
-0.768507874015748
40
0.0590511812336045
50
-90.00381997
51
0.00381997
0
LINE
8
WHITE
6
CONTINUOUS
10
2.9866141732283462
20
-0.8275590551181102
11
2.3783464566929133
21
-0.8275590551181102
0
ARC
8
WHITE
10
2.3783425196850394
20
-0.768507874015748
40
0.0590511812336045
50
-180.00381997
51
-89.99618003
0
LINE
8
WHITE
6
CONTINUOUS
10
2.3192913385826772
20
-0.768503937007874
11
2.3192913385826772
21
-0.1602362204724409
0
ARC
8
WHITE
10
2.3783425196850394
20
-0.1602322834645669
40
0.0590511812336045
50
-270.00381997
51
-179.99618003
0
CIRCLE
8
WHITE
10
0.5324803149606299
20
-3.1240157480314958
40
0.0590551181102362
0
CIRCLE
8
WHITE
10
0.1456692913385827
20
-0.1456692913385827
40
0.062992125984252
0
CIRCLE
8
WHITE
10
3.1692913385826773
20
-0.1456692913385827
40
0.062992125984252
0
CIRCLE
8
WHITE
10
0.1456692913385827
20
-3.7913385826771653
40
0.062992125984252
0
CIRCLE
8
WHITE
10
3.1692913385826773
20
-3.7913385826771653
40
0.062992125984252
  0
ENDSEC
  0
EOF
