M48
; DRILL file {KiCad 9.0.9} date 2026-08-19T09:16:18-0700
; FORMAT={-:-/ absolute / metric / decimal}
; #@! TF.CreationDate,2026-08-19T09:16:18-07:00
; #@! TF.GenerationSoftware,Kicad,Pcbnew,9.0.9
; #@! TF.FileFunction,Plated,1,2,PTH
FMAT,2
METRIC
; #@! TA.AperFunction,Plated,PTH,ViaDrill
T1C0.200
; #@! TA.AperFunction,Plated,PTH,ViaDrill
T2C0.300
; #@! TA.AperFunction,Plated,PTH,ComponentDrill
T3C0.600
; #@! TA.AperFunction,Plated,PTH,ComponentDrill
T4C1.000
; #@! TA.AperFunction,Plated,PTH,ComponentDrill
T5C1.200
; #@! TA.AperFunction,Plated,PTH,ComponentDrill
T6C1.500
; #@! TA.AperFunction,Plated,PTH,ComponentDrill
T7C3.000
%
G90
G05
T1
X3.948Y-42.83
X4.487Y-20.919
X4.487Y-25.094
X5.089Y-80.994
X5.424Y-79.851
X5.437Y-25.094
X5.448Y-59.266
X6.387Y-20.919
X6.387Y-25.094
X9.46Y-9.3
X10.8Y-36.45
X11.0Y-41.1
X11.05Y-38.4
X11.076Y-52.716
X11.1Y-74.8
X12.765Y-85.835
X12.782Y-16.015
X12.906Y-29.028
X13.4Y-43.8
X14.84Y-76.907
X16.3Y-97.95
X17.847Y-42.21
X18.165Y-75.861
X18.727Y-97.95
X19.295Y-80.065
X19.354Y-73.528
X19.41Y-75.811
X19.625Y-94.009
X20.681Y-34.303
X21.2Y-92.5
X23.381Y-26.663
X24.3Y-65.5
X24.308Y-26.231
X24.9Y-4.4
X24.912Y-87.9
X24.912Y-88.85
X24.912Y-89.8
X25.179Y-5.811
X25.79Y-10.1
X25.801Y-25.503
X26.3Y-22.2
X26.3Y-25.0
X26.3Y-27.3
X26.4Y-9.1
X26.4Y-12.3
X27.0Y-9.6
X27.356Y-43.603
X27.737Y-18.991
X28.285Y-23.417
X29.087Y-87.9
X29.087Y-88.85
X29.087Y-89.8
X30.279Y-21.384
X30.3Y-4.1
X31.316Y-18.757
X31.346Y-17.157
X31.678Y-28.783
X31.899Y-14.669
X32.871Y-10.29
X33.358Y-10.793
X34.0Y-4.2
X35.327Y-15.9
X35.327Y-23.38
X35.38Y-12.58
X35.868Y-20.383
X35.895Y-9.81
X36.104Y-17.396
X36.4Y-12.2
X36.484Y-8.763
X36.763Y-19.11
X36.768Y-21.234
X36.776Y-29.819
X37.2Y-8.85
X37.288Y-10.107
X37.407Y-10.793
X37.407Y-12.272
X37.6Y-14.8
X38.168Y-20.719
X38.191Y-12.774
X38.228Y-26.249
X38.446Y-83.5
X39.4Y-14.7
X39.658Y-89.431
X39.95Y-23.469
X39.98Y-2.873
X40.429Y-23.017
X40.5Y-12.2
X40.601Y-5.795
X40.8Y-9.9
X41.1Y-15.5
X41.1Y-16.5
X41.1Y-17.5
X41.384Y-18.581
X41.4Y-8.7
X41.773Y-3.247
X42.0Y-11.7
X42.1Y-15.5
X42.1Y-16.5
X42.1Y-17.5
X42.545Y-79.748
X42.7Y-11.7
X43.1Y-15.5
X43.1Y-16.5
X43.1Y-17.5
X43.201Y-8.56
X43.291Y-5.906
X43.57Y-95.762
X43.65Y-5.32
X43.71Y-3.198
X43.885Y-23.944
X44.0Y-10.0
X44.0Y-11.8
X44.052Y-13.904
X44.347Y-23.448
X44.4Y-51.45
X44.686Y-14.859
X44.985Y-10.559
X45.238Y-9.491
X45.269Y-90.878
X45.309Y-20.958
X45.45Y-43.65
X45.698Y-19.63
X46.05Y-8.06
X46.226Y-4.061
X46.428Y-15.389
X46.651Y-24.116
X46.863Y-17.1
X47.22Y-0.944
X47.913Y-11.575
X48.517Y-5.195
X48.863Y-7.514
X48.924Y-2.839
X48.93Y-0.817
X48.939Y-13.236
X49.045Y-19.729
X49.3Y-9.8
X49.39Y-15.685
X49.428Y-21.3
X49.58Y-10.76
X50.19Y-10.485
X50.669Y-15.147
X51.091Y-16.084
X51.304Y-7.3
X52.095Y-21.037
X52.529Y-6.764
X53.278Y-6.28
X53.365Y-18.149
X53.365Y-21.037
X53.416Y-23.179
X54.3Y-76.05
X54.635Y-21.037
X54.68Y-4.123
X54.81Y-28.754
X55.741Y-93.414
X55.905Y-11.962
X55.905Y-21.037
X56.529Y-33.451
X57.6Y-14.4
X57.6Y-20.1
X58.542Y-91.1
X58.75Y-12.741
X58.751Y-29.59
X59.383Y-32.613
X60.065Y-31.197
X60.069Y-21.893
X60.075Y-20.776
X64.422Y-93.724
X66.968Y-93.724
X67.0Y-22.5
X67.268Y-87.257
X68.1Y-58.4
X68.293Y-92.163
X70.039Y-43.124
X73.07Y-34.116
X73.4Y-54.0
X74.358Y-73.894
X74.523Y-90.914
X76.321Y-43.518
X79.129Y-60.533
X80.39Y-35.245
X80.625Y-68.315
T2
X61.6Y-21.4
X63.0Y-16.8
X63.0Y-18.7
X63.5Y-11.962
X66.5Y-18.5
T4
X6.025Y-10.0
X6.025Y-12.5
X6.025Y-15.0
X20.525Y-10.0
X20.525Y-15.0
X21.22Y-41.0
X23.76Y-41.0
X26.3Y-41.0
X28.84Y-41.0
X31.38Y-41.0
X33.92Y-41.0
X36.46Y-41.0
X39.0Y-41.0
X61.46Y-10.87
X61.46Y-13.37
X61.46Y-15.87
X67.21Y-5.12
X69.71Y-5.12
X72.21Y-5.12
T5
X64.41Y-7.12
X64.41Y-19.62
X75.01Y-7.12
X75.01Y-19.62
T7
X9.715Y-29.16
X9.715Y-48.21
X9.715Y-67.26
X16.065Y-26.62
X16.065Y-45.67
X16.065Y-64.72
X28.765Y-29.16
X28.765Y-48.21
X28.765Y-67.26
X35.115Y-26.62
X35.115Y-45.67
X35.115Y-64.72
X38.29Y-86.31
X44.64Y-83.77
X47.815Y-29.16
X47.815Y-48.21
X47.815Y-67.26
X54.165Y-26.62
X54.165Y-45.67
X54.165Y-64.72
X66.865Y-29.16
X66.865Y-48.21
X66.865Y-67.26
X73.215Y-26.62
X73.215Y-45.67
X73.215Y-64.72
T3
X37.78Y-1.7G85X37.78Y-2.3
G05
X37.78Y-5.63G85X37.78Y-6.73
G05
X46.42Y-1.7G85X46.42Y-2.3
G05
X46.42Y-5.63G85X46.42Y-6.73
G05
T6
X12.875Y-6.9G85X14.175Y-6.9
G05
X12.875Y-18.1G85X14.175Y-18.1
G05
M30
