%TF.GenerationSoftware,KiCad,Pcbnew,9.0.9*%
%TF.CreationDate,2026-08-19T09:16:18-07:00*%
%TF.ProjectId,v5_7,76355f37-2e6b-4696-9361-645f70636258,rev?*%
%TF.SameCoordinates,Original*%
%TF.FileFunction,Profile,NP*%
%FSLAX46Y46*%
G04 Gerber Fmt 4.6, Leading zero omitted, Abs format (unit mm)*
G04 Created by KiCad (PCBNEW 9.0.9) date 2026-08-19 09:16:18*
%MOMM*%
%LPD*%
G01*
G04 APERTURE LIST*
%TA.AperFunction,Profile*%
%ADD10C,0.100000*%
%TD*%
G04 APERTURE END LIST*
D10*
X0Y-13200000D02*
X13200000Y0D01*
X0Y-85400000D02*
X0Y-13200000D01*
X13200000Y0D02*
X69600000Y0D01*
X14600000Y-100000000D02*
X0Y-85400000D01*
X69600000Y0D02*
X84200000Y-14600000D01*
X69600000Y-100000000D02*
X14600000Y-100000000D01*
X84200000Y-14600000D02*
X84200000Y-85400000D01*
X84200000Y-85400000D02*
X69600000Y-100000000D01*
%TO.C,LED3*%
X49925001Y-36402843D02*
X49925001Y-34997159D01*
X50830548Y-34200001D02*
X52419452Y-34200001D01*
X52419452Y-37200000D02*
X50830547Y-37200000D01*
X53324999Y-34997159D02*
X53324999Y-36402843D01*
X49875516Y-34780281D02*
G75*
G02*
X49925001Y-34997159I-450505J-216876D01*
G01*
X49875516Y-34780282D02*
G75*
G02*
X50578289Y-34131702I450514J216880D01*
G01*
X49925001Y-36402844D02*
G75*
G02*
X49875516Y-36619721I-499990J-1D01*
G01*
X50578289Y-37268299D02*
G75*
G02*
X49875515Y-36619721I-252259J431700D01*
G01*
X50578289Y-37268299D02*
G75*
G02*
X50830547Y-37200000I252261J-431710D01*
G01*
X50830548Y-34200001D02*
G75*
G02*
X50578289Y-34131702I2J500009D01*
G01*
X52419453Y-37200001D02*
G75*
G02*
X52671711Y-37268300I-3J-500009D01*
G01*
X52671710Y-34131702D02*
G75*
G02*
X52419452Y-34200000I-252260J431712D01*
G01*
X52671711Y-34131704D02*
G75*
G02*
X53374480Y-34780279I252259J-431696D01*
G01*
X53324999Y-34997158D02*
G75*
G02*
X53374483Y-34780281I500361J-82D01*
G01*
X53374484Y-36619721D02*
G75*
G02*
X52671711Y-37268300I-450514J-216879D01*
G01*
X53374484Y-36619721D02*
G75*
G02*
X53325024Y-36402843I450516J216821D01*
G01*
%TO.C,LED13*%
X40400001Y-93552843D02*
X40400001Y-92147159D01*
X41305548Y-91350001D02*
X42894452Y-91350001D01*
X42894452Y-94350000D02*
X41305547Y-94350000D01*
X43799999Y-92147159D02*
X43799999Y-93552843D01*
X40350516Y-91930281D02*
G75*
G02*
X40400001Y-92147159I-450505J-216876D01*
G01*
X40350516Y-91930282D02*
G75*
G02*
X41053289Y-91281702I450514J216880D01*
G01*
X40400001Y-93552844D02*
G75*
G02*
X40350516Y-93769721I-499990J-1D01*
G01*
X41053289Y-94418299D02*
G75*
G02*
X40350515Y-93769721I-252259J431700D01*
G01*
X41053289Y-94418299D02*
G75*
G02*
X41305547Y-94350000I252261J-431710D01*
G01*
X41305548Y-91350001D02*
G75*
G02*
X41053289Y-91281702I2J500009D01*
G01*
X42894453Y-94350001D02*
G75*
G02*
X43146711Y-94418300I-3J-500009D01*
G01*
X43146710Y-91281702D02*
G75*
G02*
X42894452Y-91350000I-252260J431712D01*
G01*
X43146711Y-91281704D02*
G75*
G02*
X43849480Y-91930279I252259J-431696D01*
G01*
X43799999Y-92147158D02*
G75*
G02*
X43849483Y-91930281I500361J-82D01*
G01*
X43849484Y-93769721D02*
G75*
G02*
X43146711Y-94418300I-450514J-216879D01*
G01*
X43849484Y-93769721D02*
G75*
G02*
X43800024Y-93552843I450516J216821D01*
G01*
%TO.C,LED5*%
X11825001Y-55452843D02*
X11825001Y-54047159D01*
X12730548Y-53250001D02*
X14319452Y-53250001D01*
X14319452Y-56250000D02*
X12730547Y-56250000D01*
X15224999Y-54047159D02*
X15224999Y-55452843D01*
X11775516Y-53830281D02*
G75*
G02*
X11825001Y-54047159I-450505J-216876D01*
G01*
X11775516Y-53830282D02*
G75*
G02*
X12478289Y-53181702I450514J216880D01*
G01*
X11825001Y-55452844D02*
G75*
G02*
X11775516Y-55669721I-499990J-1D01*
G01*
X12478289Y-56318299D02*
G75*
G02*
X11775515Y-55669721I-252259J431700D01*
G01*
X12478289Y-56318299D02*
G75*
G02*
X12730547Y-56250000I252261J-431710D01*
G01*
X12730548Y-53250001D02*
G75*
G02*
X12478289Y-53181702I2J500009D01*
G01*
X14319453Y-56250001D02*
G75*
G02*
X14571711Y-56318300I-3J-500009D01*
G01*
X14571710Y-53181702D02*
G75*
G02*
X14319452Y-53250000I-252260J431712D01*
G01*
X14571711Y-53181704D02*
G75*
G02*
X15274480Y-53830279I252259J-431696D01*
G01*
X15224999Y-54047158D02*
G75*
G02*
X15274483Y-53830281I500361J-82D01*
G01*
X15274484Y-55669721D02*
G75*
G02*
X14571711Y-56318300I-450514J-216879D01*
G01*
X15274484Y-55669721D02*
G75*
G02*
X15225024Y-55452843I450516J216821D01*
G01*
%TO.C,LED12*%
X68975001Y-74502843D02*
X68975001Y-73097159D01*
X69880548Y-72300001D02*
X71469452Y-72300001D01*
X71469452Y-75300000D02*
X69880547Y-75300000D01*
X72374999Y-73097159D02*
X72374999Y-74502843D01*
X68925516Y-72880281D02*
G75*
G02*
X68975001Y-73097159I-450505J-216876D01*
G01*
X68925516Y-72880282D02*
G75*
G02*
X69628289Y-72231702I450514J216880D01*
G01*
X68975001Y-74502844D02*
G75*
G02*
X68925516Y-74719721I-499990J-1D01*
G01*
X69628289Y-75368299D02*
G75*
G02*
X68925515Y-74719721I-252259J431700D01*
G01*
X69628289Y-75368299D02*
G75*
G02*
X69880547Y-75300000I252261J-431710D01*
G01*
X69880548Y-72300001D02*
G75*
G02*
X69628289Y-72231702I2J500009D01*
G01*
X71469453Y-75300001D02*
G75*
G02*
X71721711Y-75368300I-3J-500009D01*
G01*
X71721710Y-72231702D02*
G75*
G02*
X71469452Y-72300000I-252260J431712D01*
G01*
X71721711Y-72231704D02*
G75*
G02*
X72424480Y-72880279I252259J-431696D01*
G01*
X72374999Y-73097158D02*
G75*
G02*
X72424483Y-72880281I500361J-82D01*
G01*
X72424484Y-74719721D02*
G75*
G02*
X71721711Y-75368300I-450514J-216879D01*
G01*
X72424484Y-74719721D02*
G75*
G02*
X72375024Y-74502843I450516J216821D01*
G01*
%TO.C,LED2*%
X30875001Y-36402843D02*
X30875001Y-34997159D01*
X31780548Y-34200001D02*
X33369452Y-34200001D01*
X33369452Y-37200000D02*
X31780547Y-37200000D01*
X34274999Y-34997159D02*
X34274999Y-36402843D01*
X30825516Y-34780281D02*
G75*
G02*
X30875001Y-34997159I-450505J-216876D01*
G01*
X30825516Y-34780282D02*
G75*
G02*
X31528289Y-34131702I450514J216880D01*
G01*
X30875001Y-36402844D02*
G75*
G02*
X30825516Y-36619721I-499990J-1D01*
G01*
X31528289Y-37268299D02*
G75*
G02*
X30825515Y-36619721I-252259J431700D01*
G01*
X31528289Y-37268299D02*
G75*
G02*
X31780547Y-37200000I252261J-431710D01*
G01*
X31780548Y-34200001D02*
G75*
G02*
X31528289Y-34131702I2J500009D01*
G01*
X33369453Y-37200001D02*
G75*
G02*
X33621711Y-37268300I-3J-500009D01*
G01*
X33621710Y-34131702D02*
G75*
G02*
X33369452Y-34200000I-252260J431712D01*
G01*
X33621711Y-34131704D02*
G75*
G02*
X34324480Y-34780279I252259J-431696D01*
G01*
X34274999Y-34997158D02*
G75*
G02*
X34324483Y-34780281I500361J-82D01*
G01*
X34324484Y-36619721D02*
G75*
G02*
X33621711Y-37268300I-450514J-216879D01*
G01*
X34324484Y-36619721D02*
G75*
G02*
X34275024Y-36402843I450516J216821D01*
G01*
%TO.C,LED4*%
X68975001Y-36402843D02*
X68975001Y-34997159D01*
X69880548Y-34200001D02*
X71469452Y-34200001D01*
X71469452Y-37200000D02*
X69880547Y-37200000D01*
X72374999Y-34997159D02*
X72374999Y-36402843D01*
X68925516Y-34780281D02*
G75*
G02*
X68975001Y-34997159I-450505J-216876D01*
G01*
X68925516Y-34780282D02*
G75*
G02*
X69628289Y-34131702I450514J216880D01*
G01*
X68975001Y-36402844D02*
G75*
G02*
X68925516Y-36619721I-499990J-1D01*
G01*
X69628289Y-37268299D02*
G75*
G02*
X68925515Y-36619721I-252259J431700D01*
G01*
X69628289Y-37268299D02*
G75*
G02*
X69880547Y-37200000I252261J-431710D01*
G01*
X69880548Y-34200001D02*
G75*
G02*
X69628289Y-34131702I2J500009D01*
G01*
X71469453Y-37200001D02*
G75*
G02*
X71721711Y-37268300I-3J-500009D01*
G01*
X71721710Y-34131702D02*
G75*
G02*
X71469452Y-34200000I-252260J431712D01*
G01*
X71721711Y-34131704D02*
G75*
G02*
X72424480Y-34780279I252259J-431696D01*
G01*
X72374999Y-34997158D02*
G75*
G02*
X72424483Y-34780281I500361J-82D01*
G01*
X72424484Y-36619721D02*
G75*
G02*
X71721711Y-37268300I-450514J-216879D01*
G01*
X72424484Y-36619721D02*
G75*
G02*
X72375024Y-36402843I450516J216821D01*
G01*
%TO.C,LED6*%
X30875001Y-55452843D02*
X30875001Y-54047159D01*
X31780548Y-53250001D02*
X33369452Y-53250001D01*
X33369452Y-56250000D02*
X31780547Y-56250000D01*
X34274999Y-54047159D02*
X34274999Y-55452843D01*
X30825516Y-53830281D02*
G75*
G02*
X30875001Y-54047159I-450505J-216876D01*
G01*
X30825516Y-53830282D02*
G75*
G02*
X31528289Y-53181702I450514J216880D01*
G01*
X30875001Y-55452844D02*
G75*
G02*
X30825516Y-55669721I-499990J-1D01*
G01*
X31528289Y-56318299D02*
G75*
G02*
X30825515Y-55669721I-252259J431700D01*
G01*
X31528289Y-56318299D02*
G75*
G02*
X31780547Y-56250000I252261J-431710D01*
G01*
X31780548Y-53250001D02*
G75*
G02*
X31528289Y-53181702I2J500009D01*
G01*
X33369453Y-56250001D02*
G75*
G02*
X33621711Y-56318300I-3J-500009D01*
G01*
X33621710Y-53181702D02*
G75*
G02*
X33369452Y-53250000I-252260J431712D01*
G01*
X33621711Y-53181704D02*
G75*
G02*
X34324480Y-53830279I252259J-431696D01*
G01*
X34274999Y-54047158D02*
G75*
G02*
X34324483Y-53830281I500361J-82D01*
G01*
X34324484Y-55669721D02*
G75*
G02*
X33621711Y-56318300I-450514J-216879D01*
G01*
X34324484Y-55669721D02*
G75*
G02*
X34275024Y-55452843I450516J216821D01*
G01*
%TO.C,LED1*%
X11825001Y-36402843D02*
X11825001Y-34997159D01*
X12730548Y-34200001D02*
X14319452Y-34200001D01*
X14319452Y-37200000D02*
X12730547Y-37200000D01*
X15224999Y-34997159D02*
X15224999Y-36402843D01*
X11775516Y-34780281D02*
G75*
G02*
X11825001Y-34997159I-450505J-216876D01*
G01*
X11775516Y-34780282D02*
G75*
G02*
X12478289Y-34131702I450514J216880D01*
G01*
X11825001Y-36402844D02*
G75*
G02*
X11775516Y-36619721I-499990J-1D01*
G01*
X12478289Y-37268299D02*
G75*
G02*
X11775515Y-36619721I-252259J431700D01*
G01*
X12478289Y-37268299D02*
G75*
G02*
X12730547Y-37200000I252261J-431710D01*
G01*
X12730548Y-34200001D02*
G75*
G02*
X12478289Y-34131702I2J500009D01*
G01*
X14319453Y-37200001D02*
G75*
G02*
X14571711Y-37268300I-3J-500009D01*
G01*
X14571710Y-34131702D02*
G75*
G02*
X14319452Y-34200000I-252260J431712D01*
G01*
X14571711Y-34131704D02*
G75*
G02*
X15274480Y-34780279I252259J-431696D01*
G01*
X15224999Y-34997158D02*
G75*
G02*
X15274483Y-34780281I500361J-82D01*
G01*
X15274484Y-36619721D02*
G75*
G02*
X14571711Y-37268300I-450514J-216879D01*
G01*
X15274484Y-36619721D02*
G75*
G02*
X15225024Y-36402843I450516J216821D01*
G01*
%TO.C,LED9*%
X11825001Y-74502843D02*
X11825001Y-73097159D01*
X12730548Y-72300001D02*
X14319452Y-72300001D01*
X14319452Y-75300000D02*
X12730547Y-75300000D01*
X15224999Y-73097159D02*
X15224999Y-74502843D01*
X11775516Y-72880281D02*
G75*
G02*
X11825001Y-73097159I-450505J-216876D01*
G01*
X11775516Y-72880282D02*
G75*
G02*
X12478289Y-72231702I450514J216880D01*
G01*
X11825001Y-74502844D02*
G75*
G02*
X11775516Y-74719721I-499990J-1D01*
G01*
X12478289Y-75368299D02*
G75*
G02*
X11775515Y-74719721I-252259J431700D01*
G01*
X12478289Y-75368299D02*
G75*
G02*
X12730547Y-75300000I252261J-431710D01*
G01*
X12730548Y-72300001D02*
G75*
G02*
X12478289Y-72231702I2J500009D01*
G01*
X14319453Y-75300001D02*
G75*
G02*
X14571711Y-75368300I-3J-500009D01*
G01*
X14571710Y-72231702D02*
G75*
G02*
X14319452Y-72300000I-252260J431712D01*
G01*
X14571711Y-72231704D02*
G75*
G02*
X15274480Y-72880279I252259J-431696D01*
G01*
X15224999Y-73097158D02*
G75*
G02*
X15274483Y-72880281I500361J-82D01*
G01*
X15274484Y-74719721D02*
G75*
G02*
X14571711Y-75368300I-450514J-216879D01*
G01*
X15274484Y-74719721D02*
G75*
G02*
X15225024Y-74502843I450516J216821D01*
G01*
%TO.C,LED7*%
X49925001Y-55452843D02*
X49925001Y-54047159D01*
X50830548Y-53250001D02*
X52419452Y-53250001D01*
X52419452Y-56250000D02*
X50830547Y-56250000D01*
X53324999Y-54047159D02*
X53324999Y-55452843D01*
X49875516Y-53830281D02*
G75*
G02*
X49925001Y-54047159I-450505J-216876D01*
G01*
X49875516Y-53830282D02*
G75*
G02*
X50578289Y-53181702I450514J216880D01*
G01*
X49925001Y-55452844D02*
G75*
G02*
X49875516Y-55669721I-499990J-1D01*
G01*
X50578289Y-56318299D02*
G75*
G02*
X49875515Y-55669721I-252259J431700D01*
G01*
X50578289Y-56318299D02*
G75*
G02*
X50830547Y-56250000I252261J-431710D01*
G01*
X50830548Y-53250001D02*
G75*
G02*
X50578289Y-53181702I2J500009D01*
G01*
X52419453Y-56250001D02*
G75*
G02*
X52671711Y-56318300I-3J-500009D01*
G01*
X52671710Y-53181702D02*
G75*
G02*
X52419452Y-53250000I-252260J431712D01*
G01*
X52671711Y-53181704D02*
G75*
G02*
X53374480Y-53830279I252259J-431696D01*
G01*
X53324999Y-54047158D02*
G75*
G02*
X53374483Y-53830281I500361J-82D01*
G01*
X53374484Y-55669721D02*
G75*
G02*
X52671711Y-56318300I-450514J-216879D01*
G01*
X53374484Y-55669721D02*
G75*
G02*
X53325024Y-55452843I450516J216821D01*
G01*
%TO.C,LED10*%
X30875001Y-74502843D02*
X30875001Y-73097159D01*
X31780548Y-72300001D02*
X33369452Y-72300001D01*
X33369452Y-75300000D02*
X31780547Y-75300000D01*
X34274999Y-73097159D02*
X34274999Y-74502843D01*
X30825516Y-72880281D02*
G75*
G02*
X30875001Y-73097159I-450505J-216876D01*
G01*
X30825516Y-72880282D02*
G75*
G02*
X31528289Y-72231702I450514J216880D01*
G01*
X30875001Y-74502844D02*
G75*
G02*
X30825516Y-74719721I-499990J-1D01*
G01*
X31528289Y-75368299D02*
G75*
G02*
X30825515Y-74719721I-252259J431700D01*
G01*
X31528289Y-75368299D02*
G75*
G02*
X31780547Y-75300000I252261J-431710D01*
G01*
X31780548Y-72300001D02*
G75*
G02*
X31528289Y-72231702I2J500009D01*
G01*
X33369453Y-75300001D02*
G75*
G02*
X33621711Y-75368300I-3J-500009D01*
G01*
X33621710Y-72231702D02*
G75*
G02*
X33369452Y-72300000I-252260J431712D01*
G01*
X33621711Y-72231704D02*
G75*
G02*
X34324480Y-72880279I252259J-431696D01*
G01*
X34274999Y-73097158D02*
G75*
G02*
X34324483Y-72880281I500361J-82D01*
G01*
X34324484Y-74719721D02*
G75*
G02*
X33621711Y-75368300I-450514J-216879D01*
G01*
X34324484Y-74719721D02*
G75*
G02*
X34275024Y-74502843I450516J216821D01*
G01*
%TO.C,LED8*%
X68975001Y-55452843D02*
X68975001Y-54047159D01*
X69880548Y-53250001D02*
X71469452Y-53250001D01*
X71469452Y-56250000D02*
X69880547Y-56250000D01*
X72374999Y-54047159D02*
X72374999Y-55452843D01*
X68925516Y-53830281D02*
G75*
G02*
X68975001Y-54047159I-450505J-216876D01*
G01*
X68925516Y-53830282D02*
G75*
G02*
X69628289Y-53181702I450514J216880D01*
G01*
X68975001Y-55452844D02*
G75*
G02*
X68925516Y-55669721I-499990J-1D01*
G01*
X69628289Y-56318299D02*
G75*
G02*
X68925515Y-55669721I-252259J431700D01*
G01*
X69628289Y-56318299D02*
G75*
G02*
X69880547Y-56250000I252261J-431710D01*
G01*
X69880548Y-53250001D02*
G75*
G02*
X69628289Y-53181702I2J500009D01*
G01*
X71469453Y-56250001D02*
G75*
G02*
X71721711Y-56318300I-3J-500009D01*
G01*
X71721710Y-53181702D02*
G75*
G02*
X71469452Y-53250000I-252260J431712D01*
G01*
X71721711Y-53181704D02*
G75*
G02*
X72424480Y-53830279I252259J-431696D01*
G01*
X72374999Y-54047158D02*
G75*
G02*
X72424483Y-53830281I500361J-82D01*
G01*
X72424484Y-55669721D02*
G75*
G02*
X71721711Y-56318300I-450514J-216879D01*
G01*
X72424484Y-55669721D02*
G75*
G02*
X72375024Y-55452843I450516J216821D01*
G01*
%TO.C,LED14*%
X11825001Y-80052843D02*
X11825001Y-78647159D01*
X12730548Y-77850001D02*
X14319452Y-77850001D01*
X14319452Y-80850000D02*
X12730547Y-80850000D01*
X15224999Y-78647159D02*
X15224999Y-80052843D01*
X11775516Y-78430281D02*
G75*
G02*
X11825001Y-78647159I-450505J-216876D01*
G01*
X11775516Y-78430282D02*
G75*
G02*
X12478289Y-77781702I450514J216880D01*
G01*
X11825001Y-80052844D02*
G75*
G02*
X11775516Y-80269721I-499990J-1D01*
G01*
X12478289Y-80918299D02*
G75*
G02*
X11775515Y-80269721I-252259J431700D01*
G01*
X12478289Y-80918299D02*
G75*
G02*
X12730547Y-80850000I252261J-431710D01*
G01*
X12730548Y-77850001D02*
G75*
G02*
X12478289Y-77781702I2J500009D01*
G01*
X14319453Y-80850001D02*
G75*
G02*
X14571711Y-80918300I-3J-500009D01*
G01*
X14571710Y-77781702D02*
G75*
G02*
X14319452Y-77850000I-252260J431712D01*
G01*
X14571711Y-77781704D02*
G75*
G02*
X15274480Y-78430279I252259J-431696D01*
G01*
X15224999Y-78647158D02*
G75*
G02*
X15274483Y-78430281I500361J-82D01*
G01*
X15274484Y-80269721D02*
G75*
G02*
X14571711Y-80918300I-450514J-216879D01*
G01*
X15274484Y-80269721D02*
G75*
G02*
X15225024Y-80052843I450516J216821D01*
G01*
%TO.C,LED11*%
X49925001Y-74502843D02*
X49925001Y-73097159D01*
X50830548Y-72300001D02*
X52419452Y-72300001D01*
X52419452Y-75300000D02*
X50830547Y-75300000D01*
X53324999Y-73097159D02*
X53324999Y-74502843D01*
X49875516Y-72880281D02*
G75*
G02*
X49925001Y-73097159I-450505J-216876D01*
G01*
X49875516Y-72880282D02*
G75*
G02*
X50578289Y-72231702I450514J216880D01*
G01*
X49925001Y-74502844D02*
G75*
G02*
X49875516Y-74719721I-499990J-1D01*
G01*
X50578289Y-75368299D02*
G75*
G02*
X49875515Y-74719721I-252259J431700D01*
G01*
X50578289Y-75368299D02*
G75*
G02*
X50830547Y-75300000I252261J-431710D01*
G01*
X50830548Y-72300001D02*
G75*
G02*
X50578289Y-72231702I2J500009D01*
G01*
X52419453Y-75300001D02*
G75*
G02*
X52671711Y-75368300I-3J-500009D01*
G01*
X52671710Y-72231702D02*
G75*
G02*
X52419452Y-72300000I-252260J431712D01*
G01*
X52671711Y-72231704D02*
G75*
G02*
X53374480Y-72880279I252259J-431696D01*
G01*
X53324999Y-73097158D02*
G75*
G02*
X53374483Y-72880281I500361J-82D01*
G01*
X53374484Y-74719721D02*
G75*
G02*
X52671711Y-75368300I-450514J-216879D01*
G01*
X53374484Y-74719721D02*
G75*
G02*
X53325024Y-74502843I450516J216821D01*
G01*
%TD*%
M02*
