%TF.GenerationSoftware,KiCad,Pcbnew,9.0.9*%
%TF.CreationDate,2026-08-19T09:16:18-07:00*%
%TF.ProjectId,v5_7,76355f37-2e6b-4696-9361-645f70636258,rev?*%
%TF.SameCoordinates,Original*%
%TF.FileFunction,Legend,Bot*%
%TF.FilePolarity,Positive*%
%FSLAX46Y46*%
G04 Gerber Fmt 4.6, Leading zero omitted, Abs format (unit mm)*
G04 Created by KiCad (PCBNEW 9.0.9) date 2026-08-19 09:16:18*
%MOMM*%
%LPD*%
G01*
G04 APERTURE LIST*
%ADD10C,0.120000*%
%ADD11C,0.100000*%
%ADD12C,0.150000*%
G04 APERTURE END LIST*
D10*
X46493855Y-15890476D02*
X47141474Y-15890476D01*
X47141474Y-15890476D02*
X47217664Y-15928571D01*
X47217664Y-15928571D02*
X47255760Y-15966666D01*
X47255760Y-15966666D02*
X47293855Y-16042857D01*
X47293855Y-16042857D02*
X47293855Y-16195238D01*
X47293855Y-16195238D02*
X47255760Y-16271428D01*
X47255760Y-16271428D02*
X47217664Y-16309523D01*
X47217664Y-16309523D02*
X47141474Y-16347619D01*
X47141474Y-16347619D02*
X46493855Y-16347619D01*
X47293855Y-17147618D02*
X47293855Y-16690475D01*
X47293855Y-16919047D02*
X46493855Y-16919047D01*
X46493855Y-16919047D02*
X46608140Y-16842856D01*
X46608140Y-16842856D02*
X46684331Y-16766666D01*
X46684331Y-16766666D02*
X46722426Y-16690475D01*
X75991667Y-49325760D02*
X75877381Y-49363855D01*
X75877381Y-49363855D02*
X75686905Y-49363855D01*
X75686905Y-49363855D02*
X75610714Y-49325760D01*
X75610714Y-49325760D02*
X75572619Y-49287664D01*
X75572619Y-49287664D02*
X75534524Y-49211474D01*
X75534524Y-49211474D02*
X75534524Y-49135283D01*
X75534524Y-49135283D02*
X75572619Y-49059093D01*
X75572619Y-49059093D02*
X75610714Y-49020998D01*
X75610714Y-49020998D02*
X75686905Y-48982902D01*
X75686905Y-48982902D02*
X75839286Y-48944807D01*
X75839286Y-48944807D02*
X75915476Y-48906712D01*
X75915476Y-48906712D02*
X75953571Y-48868617D01*
X75953571Y-48868617D02*
X75991667Y-48792426D01*
X75991667Y-48792426D02*
X75991667Y-48716236D01*
X75991667Y-48716236D02*
X75953571Y-48640045D01*
X75953571Y-48640045D02*
X75915476Y-48601950D01*
X75915476Y-48601950D02*
X75839286Y-48563855D01*
X75839286Y-48563855D02*
X75648809Y-48563855D01*
X75648809Y-48563855D02*
X75534524Y-48601950D01*
X75267857Y-48563855D02*
X75077381Y-49363855D01*
X75077381Y-49363855D02*
X74925000Y-48792426D01*
X74925000Y-48792426D02*
X74772619Y-49363855D01*
X74772619Y-49363855D02*
X74582143Y-48563855D01*
X74163095Y-48906712D02*
X74239285Y-48868617D01*
X74239285Y-48868617D02*
X74277380Y-48830521D01*
X74277380Y-48830521D02*
X74315476Y-48754331D01*
X74315476Y-48754331D02*
X74315476Y-48716236D01*
X74315476Y-48716236D02*
X74277380Y-48640045D01*
X74277380Y-48640045D02*
X74239285Y-48601950D01*
X74239285Y-48601950D02*
X74163095Y-48563855D01*
X74163095Y-48563855D02*
X74010714Y-48563855D01*
X74010714Y-48563855D02*
X73934523Y-48601950D01*
X73934523Y-48601950D02*
X73896428Y-48640045D01*
X73896428Y-48640045D02*
X73858333Y-48716236D01*
X73858333Y-48716236D02*
X73858333Y-48754331D01*
X73858333Y-48754331D02*
X73896428Y-48830521D01*
X73896428Y-48830521D02*
X73934523Y-48868617D01*
X73934523Y-48868617D02*
X74010714Y-48906712D01*
X74010714Y-48906712D02*
X74163095Y-48906712D01*
X74163095Y-48906712D02*
X74239285Y-48944807D01*
X74239285Y-48944807D02*
X74277380Y-48982902D01*
X74277380Y-48982902D02*
X74315476Y-49059093D01*
X74315476Y-49059093D02*
X74315476Y-49211474D01*
X74315476Y-49211474D02*
X74277380Y-49287664D01*
X74277380Y-49287664D02*
X74239285Y-49325760D01*
X74239285Y-49325760D02*
X74163095Y-49363855D01*
X74163095Y-49363855D02*
X74010714Y-49363855D01*
X74010714Y-49363855D02*
X73934523Y-49325760D01*
X73934523Y-49325760D02*
X73896428Y-49287664D01*
X73896428Y-49287664D02*
X73858333Y-49211474D01*
X73858333Y-49211474D02*
X73858333Y-49059093D01*
X73858333Y-49059093D02*
X73896428Y-48982902D01*
X73896428Y-48982902D02*
X73934523Y-48944807D01*
X73934523Y-48944807D02*
X74010714Y-48906712D01*
X37309523Y-15411855D02*
X36852380Y-15411855D01*
X37080952Y-16211855D02*
X37080952Y-15411855D01*
X36585713Y-16211855D02*
X36585713Y-15411855D01*
X36585713Y-15411855D02*
X36280951Y-15411855D01*
X36280951Y-15411855D02*
X36204761Y-15449950D01*
X36204761Y-15449950D02*
X36166666Y-15488045D01*
X36166666Y-15488045D02*
X36128570Y-15564236D01*
X36128570Y-15564236D02*
X36128570Y-15678521D01*
X36128570Y-15678521D02*
X36166666Y-15754712D01*
X36166666Y-15754712D02*
X36204761Y-15792807D01*
X36204761Y-15792807D02*
X36280951Y-15830902D01*
X36280951Y-15830902D02*
X36585713Y-15830902D01*
X35366666Y-16211855D02*
X35823809Y-16211855D01*
X35595237Y-16211855D02*
X35595237Y-15411855D01*
X35595237Y-15411855D02*
X35671428Y-15526140D01*
X35671428Y-15526140D02*
X35747618Y-15602331D01*
X35747618Y-15602331D02*
X35823809Y-15640426D01*
X78167142Y-86954807D02*
X78433808Y-86954807D01*
X78433808Y-87373855D02*
X78433808Y-86573855D01*
X78433808Y-86573855D02*
X78052856Y-86573855D01*
X77748094Y-87373855D02*
X77748094Y-86573855D01*
X77367142Y-87373855D02*
X77367142Y-86573855D01*
X77367142Y-86573855D02*
X77176666Y-86573855D01*
X77176666Y-86573855D02*
X77062380Y-86611950D01*
X77062380Y-86611950D02*
X76986190Y-86688140D01*
X76986190Y-86688140D02*
X76948095Y-86764331D01*
X76948095Y-86764331D02*
X76909999Y-86916712D01*
X76909999Y-86916712D02*
X76909999Y-87030998D01*
X76909999Y-87030998D02*
X76948095Y-87183379D01*
X76948095Y-87183379D02*
X76986190Y-87259569D01*
X76986190Y-87259569D02*
X77062380Y-87335760D01*
X77062380Y-87335760D02*
X77176666Y-87373855D01*
X77176666Y-87373855D02*
X77367142Y-87373855D01*
X76643333Y-86573855D02*
X76148095Y-86573855D01*
X76148095Y-86573855D02*
X76414761Y-86878617D01*
X76414761Y-86878617D02*
X76300476Y-86878617D01*
X76300476Y-86878617D02*
X76224285Y-86916712D01*
X76224285Y-86916712D02*
X76186190Y-86954807D01*
X76186190Y-86954807D02*
X76148095Y-87030998D01*
X76148095Y-87030998D02*
X76148095Y-87221474D01*
X76148095Y-87221474D02*
X76186190Y-87297664D01*
X76186190Y-87297664D02*
X76224285Y-87335760D01*
X76224285Y-87335760D02*
X76300476Y-87373855D01*
X76300476Y-87373855D02*
X76529047Y-87373855D01*
X76529047Y-87373855D02*
X76605238Y-87335760D01*
X76605238Y-87335760D02*
X76643333Y-87297664D01*
X37891667Y-49325760D02*
X37777381Y-49363855D01*
X37777381Y-49363855D02*
X37586905Y-49363855D01*
X37586905Y-49363855D02*
X37510714Y-49325760D01*
X37510714Y-49325760D02*
X37472619Y-49287664D01*
X37472619Y-49287664D02*
X37434524Y-49211474D01*
X37434524Y-49211474D02*
X37434524Y-49135283D01*
X37434524Y-49135283D02*
X37472619Y-49059093D01*
X37472619Y-49059093D02*
X37510714Y-49020998D01*
X37510714Y-49020998D02*
X37586905Y-48982902D01*
X37586905Y-48982902D02*
X37739286Y-48944807D01*
X37739286Y-48944807D02*
X37815476Y-48906712D01*
X37815476Y-48906712D02*
X37853571Y-48868617D01*
X37853571Y-48868617D02*
X37891667Y-48792426D01*
X37891667Y-48792426D02*
X37891667Y-48716236D01*
X37891667Y-48716236D02*
X37853571Y-48640045D01*
X37853571Y-48640045D02*
X37815476Y-48601950D01*
X37815476Y-48601950D02*
X37739286Y-48563855D01*
X37739286Y-48563855D02*
X37548809Y-48563855D01*
X37548809Y-48563855D02*
X37434524Y-48601950D01*
X37167857Y-48563855D02*
X36977381Y-49363855D01*
X36977381Y-49363855D02*
X36825000Y-48792426D01*
X36825000Y-48792426D02*
X36672619Y-49363855D01*
X36672619Y-49363855D02*
X36482143Y-48563855D01*
X35834523Y-48563855D02*
X35986904Y-48563855D01*
X35986904Y-48563855D02*
X36063095Y-48601950D01*
X36063095Y-48601950D02*
X36101190Y-48640045D01*
X36101190Y-48640045D02*
X36177380Y-48754331D01*
X36177380Y-48754331D02*
X36215476Y-48906712D01*
X36215476Y-48906712D02*
X36215476Y-49211474D01*
X36215476Y-49211474D02*
X36177380Y-49287664D01*
X36177380Y-49287664D02*
X36139285Y-49325760D01*
X36139285Y-49325760D02*
X36063095Y-49363855D01*
X36063095Y-49363855D02*
X35910714Y-49363855D01*
X35910714Y-49363855D02*
X35834523Y-49325760D01*
X35834523Y-49325760D02*
X35796428Y-49287664D01*
X35796428Y-49287664D02*
X35758333Y-49211474D01*
X35758333Y-49211474D02*
X35758333Y-49020998D01*
X35758333Y-49020998D02*
X35796428Y-48944807D01*
X35796428Y-48944807D02*
X35834523Y-48906712D01*
X35834523Y-48906712D02*
X35910714Y-48868617D01*
X35910714Y-48868617D02*
X36063095Y-48868617D01*
X36063095Y-48868617D02*
X36139285Y-48906712D01*
X36139285Y-48906712D02*
X36177380Y-48944807D01*
X36177380Y-48944807D02*
X36215476Y-49020998D01*
X38272619Y-68375760D02*
X38158333Y-68413855D01*
X38158333Y-68413855D02*
X37967857Y-68413855D01*
X37967857Y-68413855D02*
X37891666Y-68375760D01*
X37891666Y-68375760D02*
X37853571Y-68337664D01*
X37853571Y-68337664D02*
X37815476Y-68261474D01*
X37815476Y-68261474D02*
X37815476Y-68185283D01*
X37815476Y-68185283D02*
X37853571Y-68109093D01*
X37853571Y-68109093D02*
X37891666Y-68070998D01*
X37891666Y-68070998D02*
X37967857Y-68032902D01*
X37967857Y-68032902D02*
X38120238Y-67994807D01*
X38120238Y-67994807D02*
X38196428Y-67956712D01*
X38196428Y-67956712D02*
X38234523Y-67918617D01*
X38234523Y-67918617D02*
X38272619Y-67842426D01*
X38272619Y-67842426D02*
X38272619Y-67766236D01*
X38272619Y-67766236D02*
X38234523Y-67690045D01*
X38234523Y-67690045D02*
X38196428Y-67651950D01*
X38196428Y-67651950D02*
X38120238Y-67613855D01*
X38120238Y-67613855D02*
X37929761Y-67613855D01*
X37929761Y-67613855D02*
X37815476Y-67651950D01*
X37548809Y-67613855D02*
X37358333Y-68413855D01*
X37358333Y-68413855D02*
X37205952Y-67842426D01*
X37205952Y-67842426D02*
X37053571Y-68413855D01*
X37053571Y-68413855D02*
X36863095Y-67613855D01*
X36139285Y-68413855D02*
X36596428Y-68413855D01*
X36367856Y-68413855D02*
X36367856Y-67613855D01*
X36367856Y-67613855D02*
X36444047Y-67728140D01*
X36444047Y-67728140D02*
X36520237Y-67804331D01*
X36520237Y-67804331D02*
X36596428Y-67842426D01*
X35644046Y-67613855D02*
X35567856Y-67613855D01*
X35567856Y-67613855D02*
X35491665Y-67651950D01*
X35491665Y-67651950D02*
X35453570Y-67690045D01*
X35453570Y-67690045D02*
X35415475Y-67766236D01*
X35415475Y-67766236D02*
X35377380Y-67918617D01*
X35377380Y-67918617D02*
X35377380Y-68109093D01*
X35377380Y-68109093D02*
X35415475Y-68261474D01*
X35415475Y-68261474D02*
X35453570Y-68337664D01*
X35453570Y-68337664D02*
X35491665Y-68375760D01*
X35491665Y-68375760D02*
X35567856Y-68413855D01*
X35567856Y-68413855D02*
X35644046Y-68413855D01*
X35644046Y-68413855D02*
X35720237Y-68375760D01*
X35720237Y-68375760D02*
X35758332Y-68337664D01*
X35758332Y-68337664D02*
X35796427Y-68261474D01*
X35796427Y-68261474D02*
X35834523Y-68109093D01*
X35834523Y-68109093D02*
X35834523Y-67918617D01*
X35834523Y-67918617D02*
X35796427Y-67766236D01*
X35796427Y-67766236D02*
X35758332Y-67690045D01*
X35758332Y-67690045D02*
X35720237Y-67651950D01*
X35720237Y-67651950D02*
X35644046Y-67613855D01*
X57322619Y-68375760D02*
X57208333Y-68413855D01*
X57208333Y-68413855D02*
X57017857Y-68413855D01*
X57017857Y-68413855D02*
X56941666Y-68375760D01*
X56941666Y-68375760D02*
X56903571Y-68337664D01*
X56903571Y-68337664D02*
X56865476Y-68261474D01*
X56865476Y-68261474D02*
X56865476Y-68185283D01*
X56865476Y-68185283D02*
X56903571Y-68109093D01*
X56903571Y-68109093D02*
X56941666Y-68070998D01*
X56941666Y-68070998D02*
X57017857Y-68032902D01*
X57017857Y-68032902D02*
X57170238Y-67994807D01*
X57170238Y-67994807D02*
X57246428Y-67956712D01*
X57246428Y-67956712D02*
X57284523Y-67918617D01*
X57284523Y-67918617D02*
X57322619Y-67842426D01*
X57322619Y-67842426D02*
X57322619Y-67766236D01*
X57322619Y-67766236D02*
X57284523Y-67690045D01*
X57284523Y-67690045D02*
X57246428Y-67651950D01*
X57246428Y-67651950D02*
X57170238Y-67613855D01*
X57170238Y-67613855D02*
X56979761Y-67613855D01*
X56979761Y-67613855D02*
X56865476Y-67651950D01*
X56598809Y-67613855D02*
X56408333Y-68413855D01*
X56408333Y-68413855D02*
X56255952Y-67842426D01*
X56255952Y-67842426D02*
X56103571Y-68413855D01*
X56103571Y-68413855D02*
X55913095Y-67613855D01*
X55189285Y-68413855D02*
X55646428Y-68413855D01*
X55417856Y-68413855D02*
X55417856Y-67613855D01*
X55417856Y-67613855D02*
X55494047Y-67728140D01*
X55494047Y-67728140D02*
X55570237Y-67804331D01*
X55570237Y-67804331D02*
X55646428Y-67842426D01*
X54427380Y-68413855D02*
X54884523Y-68413855D01*
X54655951Y-68413855D02*
X54655951Y-67613855D01*
X54655951Y-67613855D02*
X54732142Y-67728140D01*
X54732142Y-67728140D02*
X54808332Y-67804331D01*
X54808332Y-67804331D02*
X54884523Y-67842426D01*
X18841667Y-49325760D02*
X18727381Y-49363855D01*
X18727381Y-49363855D02*
X18536905Y-49363855D01*
X18536905Y-49363855D02*
X18460714Y-49325760D01*
X18460714Y-49325760D02*
X18422619Y-49287664D01*
X18422619Y-49287664D02*
X18384524Y-49211474D01*
X18384524Y-49211474D02*
X18384524Y-49135283D01*
X18384524Y-49135283D02*
X18422619Y-49059093D01*
X18422619Y-49059093D02*
X18460714Y-49020998D01*
X18460714Y-49020998D02*
X18536905Y-48982902D01*
X18536905Y-48982902D02*
X18689286Y-48944807D01*
X18689286Y-48944807D02*
X18765476Y-48906712D01*
X18765476Y-48906712D02*
X18803571Y-48868617D01*
X18803571Y-48868617D02*
X18841667Y-48792426D01*
X18841667Y-48792426D02*
X18841667Y-48716236D01*
X18841667Y-48716236D02*
X18803571Y-48640045D01*
X18803571Y-48640045D02*
X18765476Y-48601950D01*
X18765476Y-48601950D02*
X18689286Y-48563855D01*
X18689286Y-48563855D02*
X18498809Y-48563855D01*
X18498809Y-48563855D02*
X18384524Y-48601950D01*
X18117857Y-48563855D02*
X17927381Y-49363855D01*
X17927381Y-49363855D02*
X17775000Y-48792426D01*
X17775000Y-48792426D02*
X17622619Y-49363855D01*
X17622619Y-49363855D02*
X17432143Y-48563855D01*
X16746428Y-48563855D02*
X17127380Y-48563855D01*
X17127380Y-48563855D02*
X17165476Y-48944807D01*
X17165476Y-48944807D02*
X17127380Y-48906712D01*
X17127380Y-48906712D02*
X17051190Y-48868617D01*
X17051190Y-48868617D02*
X16860714Y-48868617D01*
X16860714Y-48868617D02*
X16784523Y-48906712D01*
X16784523Y-48906712D02*
X16746428Y-48944807D01*
X16746428Y-48944807D02*
X16708333Y-49020998D01*
X16708333Y-49020998D02*
X16708333Y-49211474D01*
X16708333Y-49211474D02*
X16746428Y-49287664D01*
X16746428Y-49287664D02*
X16784523Y-49325760D01*
X16784523Y-49325760D02*
X16860714Y-49363855D01*
X16860714Y-49363855D02*
X17051190Y-49363855D01*
X17051190Y-49363855D02*
X17127380Y-49325760D01*
X17127380Y-49325760D02*
X17165476Y-49287664D01*
X53609523Y-10811855D02*
X53152380Y-10811855D01*
X53380952Y-11611855D02*
X53380952Y-10811855D01*
X52885713Y-11611855D02*
X52885713Y-10811855D01*
X52885713Y-10811855D02*
X52580951Y-10811855D01*
X52580951Y-10811855D02*
X52504761Y-10849950D01*
X52504761Y-10849950D02*
X52466666Y-10888045D01*
X52466666Y-10888045D02*
X52428570Y-10964236D01*
X52428570Y-10964236D02*
X52428570Y-11078521D01*
X52428570Y-11078521D02*
X52466666Y-11154712D01*
X52466666Y-11154712D02*
X52504761Y-11192807D01*
X52504761Y-11192807D02*
X52580951Y-11230902D01*
X52580951Y-11230902D02*
X52885713Y-11230902D01*
X52161904Y-10811855D02*
X51666666Y-10811855D01*
X51666666Y-10811855D02*
X51933332Y-11116617D01*
X51933332Y-11116617D02*
X51819047Y-11116617D01*
X51819047Y-11116617D02*
X51742856Y-11154712D01*
X51742856Y-11154712D02*
X51704761Y-11192807D01*
X51704761Y-11192807D02*
X51666666Y-11268998D01*
X51666666Y-11268998D02*
X51666666Y-11459474D01*
X51666666Y-11459474D02*
X51704761Y-11535664D01*
X51704761Y-11535664D02*
X51742856Y-11573760D01*
X51742856Y-11573760D02*
X51819047Y-11611855D01*
X51819047Y-11611855D02*
X52047618Y-11611855D01*
X52047618Y-11611855D02*
X52123809Y-11573760D01*
X52123809Y-11573760D02*
X52161904Y-11535664D01*
X27609523Y-90813855D02*
X27609523Y-91461474D01*
X27609523Y-91461474D02*
X27571428Y-91537664D01*
X27571428Y-91537664D02*
X27533333Y-91575760D01*
X27533333Y-91575760D02*
X27457142Y-91613855D01*
X27457142Y-91613855D02*
X27304761Y-91613855D01*
X27304761Y-91613855D02*
X27228571Y-91575760D01*
X27228571Y-91575760D02*
X27190476Y-91537664D01*
X27190476Y-91537664D02*
X27152380Y-91461474D01*
X27152380Y-91461474D02*
X27152380Y-90813855D01*
X26428571Y-90813855D02*
X26580952Y-90813855D01*
X26580952Y-90813855D02*
X26657143Y-90851950D01*
X26657143Y-90851950D02*
X26695238Y-90890045D01*
X26695238Y-90890045D02*
X26771428Y-91004331D01*
X26771428Y-91004331D02*
X26809524Y-91156712D01*
X26809524Y-91156712D02*
X26809524Y-91461474D01*
X26809524Y-91461474D02*
X26771428Y-91537664D01*
X26771428Y-91537664D02*
X26733333Y-91575760D01*
X26733333Y-91575760D02*
X26657143Y-91613855D01*
X26657143Y-91613855D02*
X26504762Y-91613855D01*
X26504762Y-91613855D02*
X26428571Y-91575760D01*
X26428571Y-91575760D02*
X26390476Y-91537664D01*
X26390476Y-91537664D02*
X26352381Y-91461474D01*
X26352381Y-91461474D02*
X26352381Y-91270998D01*
X26352381Y-91270998D02*
X26390476Y-91194807D01*
X26390476Y-91194807D02*
X26428571Y-91156712D01*
X26428571Y-91156712D02*
X26504762Y-91118617D01*
X26504762Y-91118617D02*
X26657143Y-91118617D01*
X26657143Y-91118617D02*
X26733333Y-91156712D01*
X26733333Y-91156712D02*
X26771428Y-91194807D01*
X26771428Y-91194807D02*
X26809524Y-91270998D01*
X42366666Y-8258855D02*
X42366666Y-8830283D01*
X42366666Y-8830283D02*
X42404761Y-8944569D01*
X42404761Y-8944569D02*
X42480952Y-9020760D01*
X42480952Y-9020760D02*
X42595237Y-9058855D01*
X42595237Y-9058855D02*
X42671428Y-9058855D01*
X41566666Y-9058855D02*
X42023809Y-9058855D01*
X41795237Y-9058855D02*
X41795237Y-8258855D01*
X41795237Y-8258855D02*
X41871428Y-8373140D01*
X41871428Y-8373140D02*
X41947618Y-8449331D01*
X41947618Y-8449331D02*
X42023809Y-8487426D01*
X13963855Y-39390476D02*
X14611474Y-39390476D01*
X14611474Y-39390476D02*
X14687664Y-39428571D01*
X14687664Y-39428571D02*
X14725760Y-39466666D01*
X14725760Y-39466666D02*
X14763855Y-39542857D01*
X14763855Y-39542857D02*
X14763855Y-39695238D01*
X14763855Y-39695238D02*
X14725760Y-39771428D01*
X14725760Y-39771428D02*
X14687664Y-39809523D01*
X14687664Y-39809523D02*
X14611474Y-39847619D01*
X14611474Y-39847619D02*
X13963855Y-39847619D01*
X13963855Y-40609523D02*
X13963855Y-40228571D01*
X13963855Y-40228571D02*
X14344807Y-40190475D01*
X14344807Y-40190475D02*
X14306712Y-40228571D01*
X14306712Y-40228571D02*
X14268617Y-40304761D01*
X14268617Y-40304761D02*
X14268617Y-40495237D01*
X14268617Y-40495237D02*
X14306712Y-40571428D01*
X14306712Y-40571428D02*
X14344807Y-40609523D01*
X14344807Y-40609523D02*
X14420998Y-40647618D01*
X14420998Y-40647618D02*
X14611474Y-40647618D01*
X14611474Y-40647618D02*
X14687664Y-40609523D01*
X14687664Y-40609523D02*
X14725760Y-40571428D01*
X14725760Y-40571428D02*
X14763855Y-40495237D01*
X14763855Y-40495237D02*
X14763855Y-40304761D01*
X14763855Y-40304761D02*
X14725760Y-40228571D01*
X14725760Y-40228571D02*
X14687664Y-40190475D01*
X65447619Y-93225760D02*
X65333333Y-93263855D01*
X65333333Y-93263855D02*
X65142857Y-93263855D01*
X65142857Y-93263855D02*
X65066666Y-93225760D01*
X65066666Y-93225760D02*
X65028571Y-93187664D01*
X65028571Y-93187664D02*
X64990476Y-93111474D01*
X64990476Y-93111474D02*
X64990476Y-93035283D01*
X64990476Y-93035283D02*
X65028571Y-92959093D01*
X65028571Y-92959093D02*
X65066666Y-92920998D01*
X65066666Y-92920998D02*
X65142857Y-92882902D01*
X65142857Y-92882902D02*
X65295238Y-92844807D01*
X65295238Y-92844807D02*
X65371428Y-92806712D01*
X65371428Y-92806712D02*
X65409523Y-92768617D01*
X65409523Y-92768617D02*
X65447619Y-92692426D01*
X65447619Y-92692426D02*
X65447619Y-92616236D01*
X65447619Y-92616236D02*
X65409523Y-92540045D01*
X65409523Y-92540045D02*
X65371428Y-92501950D01*
X65371428Y-92501950D02*
X65295238Y-92463855D01*
X65295238Y-92463855D02*
X65104761Y-92463855D01*
X65104761Y-92463855D02*
X64990476Y-92501950D01*
X64723809Y-92463855D02*
X64533333Y-93263855D01*
X64533333Y-93263855D02*
X64380952Y-92692426D01*
X64380952Y-92692426D02*
X64228571Y-93263855D01*
X64228571Y-93263855D02*
X64038095Y-92463855D01*
X63314285Y-93263855D02*
X63771428Y-93263855D01*
X63542856Y-93263855D02*
X63542856Y-92463855D01*
X63542856Y-92463855D02*
X63619047Y-92578140D01*
X63619047Y-92578140D02*
X63695237Y-92654331D01*
X63695237Y-92654331D02*
X63771428Y-92692426D01*
X62628570Y-92730521D02*
X62628570Y-93263855D01*
X62819046Y-92425760D02*
X63009523Y-92997188D01*
X63009523Y-92997188D02*
X62514284Y-92997188D01*
X56941667Y-49325760D02*
X56827381Y-49363855D01*
X56827381Y-49363855D02*
X56636905Y-49363855D01*
X56636905Y-49363855D02*
X56560714Y-49325760D01*
X56560714Y-49325760D02*
X56522619Y-49287664D01*
X56522619Y-49287664D02*
X56484524Y-49211474D01*
X56484524Y-49211474D02*
X56484524Y-49135283D01*
X56484524Y-49135283D02*
X56522619Y-49059093D01*
X56522619Y-49059093D02*
X56560714Y-49020998D01*
X56560714Y-49020998D02*
X56636905Y-48982902D01*
X56636905Y-48982902D02*
X56789286Y-48944807D01*
X56789286Y-48944807D02*
X56865476Y-48906712D01*
X56865476Y-48906712D02*
X56903571Y-48868617D01*
X56903571Y-48868617D02*
X56941667Y-48792426D01*
X56941667Y-48792426D02*
X56941667Y-48716236D01*
X56941667Y-48716236D02*
X56903571Y-48640045D01*
X56903571Y-48640045D02*
X56865476Y-48601950D01*
X56865476Y-48601950D02*
X56789286Y-48563855D01*
X56789286Y-48563855D02*
X56598809Y-48563855D01*
X56598809Y-48563855D02*
X56484524Y-48601950D01*
X56217857Y-48563855D02*
X56027381Y-49363855D01*
X56027381Y-49363855D02*
X55875000Y-48792426D01*
X55875000Y-48792426D02*
X55722619Y-49363855D01*
X55722619Y-49363855D02*
X55532143Y-48563855D01*
X55303571Y-48563855D02*
X54770237Y-48563855D01*
X54770237Y-48563855D02*
X55113095Y-49363855D01*
X76875760Y-86852380D02*
X76913855Y-86966666D01*
X76913855Y-86966666D02*
X76913855Y-87157142D01*
X76913855Y-87157142D02*
X76875760Y-87233333D01*
X76875760Y-87233333D02*
X76837664Y-87271428D01*
X76837664Y-87271428D02*
X76761474Y-87309523D01*
X76761474Y-87309523D02*
X76685283Y-87309523D01*
X76685283Y-87309523D02*
X76609093Y-87271428D01*
X76609093Y-87271428D02*
X76570998Y-87233333D01*
X76570998Y-87233333D02*
X76532902Y-87157142D01*
X76532902Y-87157142D02*
X76494807Y-87004761D01*
X76494807Y-87004761D02*
X76456712Y-86928571D01*
X76456712Y-86928571D02*
X76418617Y-86890476D01*
X76418617Y-86890476D02*
X76342426Y-86852380D01*
X76342426Y-86852380D02*
X76266236Y-86852380D01*
X76266236Y-86852380D02*
X76190045Y-86890476D01*
X76190045Y-86890476D02*
X76151950Y-86928571D01*
X76151950Y-86928571D02*
X76113855Y-87004761D01*
X76113855Y-87004761D02*
X76113855Y-87195238D01*
X76113855Y-87195238D02*
X76151950Y-87309523D01*
X76113855Y-87576190D02*
X76913855Y-87766666D01*
X76913855Y-87766666D02*
X76342426Y-87919047D01*
X76342426Y-87919047D02*
X76913855Y-88071428D01*
X76913855Y-88071428D02*
X76113855Y-88261905D01*
X76913855Y-88985714D02*
X76913855Y-88528571D01*
X76913855Y-88757143D02*
X76113855Y-88757143D01*
X76113855Y-88757143D02*
X76228140Y-88680952D01*
X76228140Y-88680952D02*
X76304331Y-88604762D01*
X76304331Y-88604762D02*
X76342426Y-88528571D01*
X76113855Y-89709524D02*
X76113855Y-89328572D01*
X76113855Y-89328572D02*
X76494807Y-89290476D01*
X76494807Y-89290476D02*
X76456712Y-89328572D01*
X76456712Y-89328572D02*
X76418617Y-89404762D01*
X76418617Y-89404762D02*
X76418617Y-89595238D01*
X76418617Y-89595238D02*
X76456712Y-89671429D01*
X76456712Y-89671429D02*
X76494807Y-89709524D01*
X76494807Y-89709524D02*
X76570998Y-89747619D01*
X76570998Y-89747619D02*
X76761474Y-89747619D01*
X76761474Y-89747619D02*
X76837664Y-89709524D01*
X76837664Y-89709524D02*
X76875760Y-89671429D01*
X76875760Y-89671429D02*
X76913855Y-89595238D01*
X76913855Y-89595238D02*
X76913855Y-89404762D01*
X76913855Y-89404762D02*
X76875760Y-89328572D01*
X76875760Y-89328572D02*
X76837664Y-89290476D01*
X78557142Y-14894807D02*
X78823808Y-14894807D01*
X78823808Y-15313855D02*
X78823808Y-14513855D01*
X78823808Y-14513855D02*
X78442856Y-14513855D01*
X78138094Y-15313855D02*
X78138094Y-14513855D01*
X77757142Y-15313855D02*
X77757142Y-14513855D01*
X77757142Y-14513855D02*
X77566666Y-14513855D01*
X77566666Y-14513855D02*
X77452380Y-14551950D01*
X77452380Y-14551950D02*
X77376190Y-14628140D01*
X77376190Y-14628140D02*
X77338095Y-14704331D01*
X77338095Y-14704331D02*
X77299999Y-14856712D01*
X77299999Y-14856712D02*
X77299999Y-14970998D01*
X77299999Y-14970998D02*
X77338095Y-15123379D01*
X77338095Y-15123379D02*
X77376190Y-15199569D01*
X77376190Y-15199569D02*
X77452380Y-15275760D01*
X77452380Y-15275760D02*
X77566666Y-15313855D01*
X77566666Y-15313855D02*
X77757142Y-15313855D01*
X76995238Y-14590045D02*
X76957142Y-14551950D01*
X76957142Y-14551950D02*
X76880952Y-14513855D01*
X76880952Y-14513855D02*
X76690476Y-14513855D01*
X76690476Y-14513855D02*
X76614285Y-14551950D01*
X76614285Y-14551950D02*
X76576190Y-14590045D01*
X76576190Y-14590045D02*
X76538095Y-14666236D01*
X76538095Y-14666236D02*
X76538095Y-14742426D01*
X76538095Y-14742426D02*
X76576190Y-14856712D01*
X76576190Y-14856712D02*
X77033333Y-15313855D01*
X77033333Y-15313855D02*
X76538095Y-15313855D01*
X34380951Y-20832902D02*
X34380951Y-21213855D01*
X34647618Y-20413855D02*
X34380951Y-20832902D01*
X34380951Y-20832902D02*
X34114285Y-20413855D01*
X33428571Y-21213855D02*
X33885714Y-21213855D01*
X33657142Y-21213855D02*
X33657142Y-20413855D01*
X33657142Y-20413855D02*
X33733333Y-20528140D01*
X33733333Y-20528140D02*
X33809523Y-20604331D01*
X33809523Y-20604331D02*
X33885714Y-20642426D01*
X57163855Y-15890476D02*
X57811474Y-15890476D01*
X57811474Y-15890476D02*
X57887664Y-15928571D01*
X57887664Y-15928571D02*
X57925760Y-15966666D01*
X57925760Y-15966666D02*
X57963855Y-16042857D01*
X57963855Y-16042857D02*
X57963855Y-16195238D01*
X57963855Y-16195238D02*
X57925760Y-16271428D01*
X57925760Y-16271428D02*
X57887664Y-16309523D01*
X57887664Y-16309523D02*
X57811474Y-16347619D01*
X57811474Y-16347619D02*
X57163855Y-16347619D01*
X57240045Y-16690475D02*
X57201950Y-16728571D01*
X57201950Y-16728571D02*
X57163855Y-16804761D01*
X57163855Y-16804761D02*
X57163855Y-16995237D01*
X57163855Y-16995237D02*
X57201950Y-17071428D01*
X57201950Y-17071428D02*
X57240045Y-17109523D01*
X57240045Y-17109523D02*
X57316236Y-17147618D01*
X57316236Y-17147618D02*
X57392426Y-17147618D01*
X57392426Y-17147618D02*
X57506712Y-17109523D01*
X57506712Y-17109523D02*
X57963855Y-16652380D01*
X57963855Y-16652380D02*
X57963855Y-17147618D01*
X56090475Y-4413855D02*
X56090475Y-3613855D01*
X56090475Y-3613855D02*
X55899999Y-3613855D01*
X55899999Y-3613855D02*
X55785713Y-3651950D01*
X55785713Y-3651950D02*
X55709523Y-3728140D01*
X55709523Y-3728140D02*
X55671428Y-3804331D01*
X55671428Y-3804331D02*
X55633332Y-3956712D01*
X55633332Y-3956712D02*
X55633332Y-4070998D01*
X55633332Y-4070998D02*
X55671428Y-4223379D01*
X55671428Y-4223379D02*
X55709523Y-4299569D01*
X55709523Y-4299569D02*
X55785713Y-4375760D01*
X55785713Y-4375760D02*
X55899999Y-4413855D01*
X55899999Y-4413855D02*
X56090475Y-4413855D01*
X54871428Y-4413855D02*
X55328571Y-4413855D01*
X55099999Y-4413855D02*
X55099999Y-3613855D01*
X55099999Y-3613855D02*
X55176190Y-3728140D01*
X55176190Y-3728140D02*
X55252380Y-3804331D01*
X55252380Y-3804331D02*
X55328571Y-3842426D01*
X18841667Y-30275760D02*
X18727381Y-30313855D01*
X18727381Y-30313855D02*
X18536905Y-30313855D01*
X18536905Y-30313855D02*
X18460714Y-30275760D01*
X18460714Y-30275760D02*
X18422619Y-30237664D01*
X18422619Y-30237664D02*
X18384524Y-30161474D01*
X18384524Y-30161474D02*
X18384524Y-30085283D01*
X18384524Y-30085283D02*
X18422619Y-30009093D01*
X18422619Y-30009093D02*
X18460714Y-29970998D01*
X18460714Y-29970998D02*
X18536905Y-29932902D01*
X18536905Y-29932902D02*
X18689286Y-29894807D01*
X18689286Y-29894807D02*
X18765476Y-29856712D01*
X18765476Y-29856712D02*
X18803571Y-29818617D01*
X18803571Y-29818617D02*
X18841667Y-29742426D01*
X18841667Y-29742426D02*
X18841667Y-29666236D01*
X18841667Y-29666236D02*
X18803571Y-29590045D01*
X18803571Y-29590045D02*
X18765476Y-29551950D01*
X18765476Y-29551950D02*
X18689286Y-29513855D01*
X18689286Y-29513855D02*
X18498809Y-29513855D01*
X18498809Y-29513855D02*
X18384524Y-29551950D01*
X18117857Y-29513855D02*
X17927381Y-30313855D01*
X17927381Y-30313855D02*
X17775000Y-29742426D01*
X17775000Y-29742426D02*
X17622619Y-30313855D01*
X17622619Y-30313855D02*
X17432143Y-29513855D01*
X16708333Y-30313855D02*
X17165476Y-30313855D01*
X16936904Y-30313855D02*
X16936904Y-29513855D01*
X16936904Y-29513855D02*
X17013095Y-29628140D01*
X17013095Y-29628140D02*
X17089285Y-29704331D01*
X17089285Y-29704331D02*
X17165476Y-29742426D01*
X75991667Y-30275760D02*
X75877381Y-30313855D01*
X75877381Y-30313855D02*
X75686905Y-30313855D01*
X75686905Y-30313855D02*
X75610714Y-30275760D01*
X75610714Y-30275760D02*
X75572619Y-30237664D01*
X75572619Y-30237664D02*
X75534524Y-30161474D01*
X75534524Y-30161474D02*
X75534524Y-30085283D01*
X75534524Y-30085283D02*
X75572619Y-30009093D01*
X75572619Y-30009093D02*
X75610714Y-29970998D01*
X75610714Y-29970998D02*
X75686905Y-29932902D01*
X75686905Y-29932902D02*
X75839286Y-29894807D01*
X75839286Y-29894807D02*
X75915476Y-29856712D01*
X75915476Y-29856712D02*
X75953571Y-29818617D01*
X75953571Y-29818617D02*
X75991667Y-29742426D01*
X75991667Y-29742426D02*
X75991667Y-29666236D01*
X75991667Y-29666236D02*
X75953571Y-29590045D01*
X75953571Y-29590045D02*
X75915476Y-29551950D01*
X75915476Y-29551950D02*
X75839286Y-29513855D01*
X75839286Y-29513855D02*
X75648809Y-29513855D01*
X75648809Y-29513855D02*
X75534524Y-29551950D01*
X75267857Y-29513855D02*
X75077381Y-30313855D01*
X75077381Y-30313855D02*
X74925000Y-29742426D01*
X74925000Y-29742426D02*
X74772619Y-30313855D01*
X74772619Y-30313855D02*
X74582143Y-29513855D01*
X73934523Y-29780521D02*
X73934523Y-30313855D01*
X74124999Y-29475760D02*
X74315476Y-30047188D01*
X74315476Y-30047188D02*
X73820237Y-30047188D01*
X9857142Y-15894807D02*
X10123808Y-15894807D01*
X10123808Y-16313855D02*
X10123808Y-15513855D01*
X10123808Y-15513855D02*
X9742856Y-15513855D01*
X9438094Y-16313855D02*
X9438094Y-15513855D01*
X9057142Y-16313855D02*
X9057142Y-15513855D01*
X9057142Y-15513855D02*
X8866666Y-15513855D01*
X8866666Y-15513855D02*
X8752380Y-15551950D01*
X8752380Y-15551950D02*
X8676190Y-15628140D01*
X8676190Y-15628140D02*
X8638095Y-15704331D01*
X8638095Y-15704331D02*
X8599999Y-15856712D01*
X8599999Y-15856712D02*
X8599999Y-15970998D01*
X8599999Y-15970998D02*
X8638095Y-16123379D01*
X8638095Y-16123379D02*
X8676190Y-16199569D01*
X8676190Y-16199569D02*
X8752380Y-16275760D01*
X8752380Y-16275760D02*
X8866666Y-16313855D01*
X8866666Y-16313855D02*
X9057142Y-16313855D01*
X7838095Y-16313855D02*
X8295238Y-16313855D01*
X8066666Y-16313855D02*
X8066666Y-15513855D01*
X8066666Y-15513855D02*
X8142857Y-15628140D01*
X8142857Y-15628140D02*
X8219047Y-15704331D01*
X8219047Y-15704331D02*
X8295238Y-15742426D01*
X57466666Y-9194807D02*
X57733332Y-9194807D01*
X57733332Y-9613855D02*
X57733332Y-8813855D01*
X57733332Y-8813855D02*
X57352380Y-8813855D01*
X56628571Y-9613855D02*
X57085714Y-9613855D01*
X56857142Y-9613855D02*
X56857142Y-8813855D01*
X56857142Y-8813855D02*
X56933333Y-8928140D01*
X56933333Y-8928140D02*
X57009523Y-9004331D01*
X57009523Y-9004331D02*
X57085714Y-9042426D01*
X34709523Y-14811855D02*
X34252380Y-14811855D01*
X34480952Y-15611855D02*
X34480952Y-14811855D01*
X33985713Y-15611855D02*
X33985713Y-14811855D01*
X33985713Y-14811855D02*
X33680951Y-14811855D01*
X33680951Y-14811855D02*
X33604761Y-14849950D01*
X33604761Y-14849950D02*
X33566666Y-14888045D01*
X33566666Y-14888045D02*
X33528570Y-14964236D01*
X33528570Y-14964236D02*
X33528570Y-15078521D01*
X33528570Y-15078521D02*
X33566666Y-15154712D01*
X33566666Y-15154712D02*
X33604761Y-15192807D01*
X33604761Y-15192807D02*
X33680951Y-15230902D01*
X33680951Y-15230902D02*
X33985713Y-15230902D01*
X33223809Y-14888045D02*
X33185713Y-14849950D01*
X33185713Y-14849950D02*
X33109523Y-14811855D01*
X33109523Y-14811855D02*
X32919047Y-14811855D01*
X32919047Y-14811855D02*
X32842856Y-14849950D01*
X32842856Y-14849950D02*
X32804761Y-14888045D01*
X32804761Y-14888045D02*
X32766666Y-14964236D01*
X32766666Y-14964236D02*
X32766666Y-15040426D01*
X32766666Y-15040426D02*
X32804761Y-15154712D01*
X32804761Y-15154712D02*
X33261904Y-15611855D01*
X33261904Y-15611855D02*
X32766666Y-15611855D01*
X7401063Y-22396840D02*
X8048682Y-22396840D01*
X8048682Y-22396840D02*
X8124872Y-22434935D01*
X8124872Y-22434935D02*
X8162968Y-22473030D01*
X8162968Y-22473030D02*
X8201063Y-22549221D01*
X8201063Y-22549221D02*
X8201063Y-22701602D01*
X8201063Y-22701602D02*
X8162968Y-22777792D01*
X8162968Y-22777792D02*
X8124872Y-22815887D01*
X8124872Y-22815887D02*
X8048682Y-22853983D01*
X8048682Y-22853983D02*
X7401063Y-22853983D01*
X7401063Y-23158744D02*
X7401063Y-23653982D01*
X7401063Y-23653982D02*
X7705825Y-23387316D01*
X7705825Y-23387316D02*
X7705825Y-23501601D01*
X7705825Y-23501601D02*
X7743920Y-23577792D01*
X7743920Y-23577792D02*
X7782015Y-23615887D01*
X7782015Y-23615887D02*
X7858206Y-23653982D01*
X7858206Y-23653982D02*
X8048682Y-23653982D01*
X8048682Y-23653982D02*
X8124872Y-23615887D01*
X8124872Y-23615887D02*
X8162968Y-23577792D01*
X8162968Y-23577792D02*
X8201063Y-23501601D01*
X8201063Y-23501601D02*
X8201063Y-23273030D01*
X8201063Y-23273030D02*
X8162968Y-23196839D01*
X8162968Y-23196839D02*
X8124872Y-23158744D01*
X37891667Y-30275760D02*
X37777381Y-30313855D01*
X37777381Y-30313855D02*
X37586905Y-30313855D01*
X37586905Y-30313855D02*
X37510714Y-30275760D01*
X37510714Y-30275760D02*
X37472619Y-30237664D01*
X37472619Y-30237664D02*
X37434524Y-30161474D01*
X37434524Y-30161474D02*
X37434524Y-30085283D01*
X37434524Y-30085283D02*
X37472619Y-30009093D01*
X37472619Y-30009093D02*
X37510714Y-29970998D01*
X37510714Y-29970998D02*
X37586905Y-29932902D01*
X37586905Y-29932902D02*
X37739286Y-29894807D01*
X37739286Y-29894807D02*
X37815476Y-29856712D01*
X37815476Y-29856712D02*
X37853571Y-29818617D01*
X37853571Y-29818617D02*
X37891667Y-29742426D01*
X37891667Y-29742426D02*
X37891667Y-29666236D01*
X37891667Y-29666236D02*
X37853571Y-29590045D01*
X37853571Y-29590045D02*
X37815476Y-29551950D01*
X37815476Y-29551950D02*
X37739286Y-29513855D01*
X37739286Y-29513855D02*
X37548809Y-29513855D01*
X37548809Y-29513855D02*
X37434524Y-29551950D01*
X37167857Y-29513855D02*
X36977381Y-30313855D01*
X36977381Y-30313855D02*
X36825000Y-29742426D01*
X36825000Y-29742426D02*
X36672619Y-30313855D01*
X36672619Y-30313855D02*
X36482143Y-29513855D01*
X36215476Y-29590045D02*
X36177380Y-29551950D01*
X36177380Y-29551950D02*
X36101190Y-29513855D01*
X36101190Y-29513855D02*
X35910714Y-29513855D01*
X35910714Y-29513855D02*
X35834523Y-29551950D01*
X35834523Y-29551950D02*
X35796428Y-29590045D01*
X35796428Y-29590045D02*
X35758333Y-29666236D01*
X35758333Y-29666236D02*
X35758333Y-29742426D01*
X35758333Y-29742426D02*
X35796428Y-29856712D01*
X35796428Y-29856712D02*
X36253571Y-30313855D01*
X36253571Y-30313855D02*
X35758333Y-30313855D01*
X49163855Y-8590476D02*
X49811474Y-8590476D01*
X49811474Y-8590476D02*
X49887664Y-8628571D01*
X49887664Y-8628571D02*
X49925760Y-8666666D01*
X49925760Y-8666666D02*
X49963855Y-8742857D01*
X49963855Y-8742857D02*
X49963855Y-8895238D01*
X49963855Y-8895238D02*
X49925760Y-8971428D01*
X49925760Y-8971428D02*
X49887664Y-9009523D01*
X49887664Y-9009523D02*
X49811474Y-9047619D01*
X49811474Y-9047619D02*
X49163855Y-9047619D01*
X49430521Y-9771428D02*
X49963855Y-9771428D01*
X49125760Y-9580952D02*
X49697188Y-9390475D01*
X49697188Y-9390475D02*
X49697188Y-9885714D01*
X56941667Y-30275760D02*
X56827381Y-30313855D01*
X56827381Y-30313855D02*
X56636905Y-30313855D01*
X56636905Y-30313855D02*
X56560714Y-30275760D01*
X56560714Y-30275760D02*
X56522619Y-30237664D01*
X56522619Y-30237664D02*
X56484524Y-30161474D01*
X56484524Y-30161474D02*
X56484524Y-30085283D01*
X56484524Y-30085283D02*
X56522619Y-30009093D01*
X56522619Y-30009093D02*
X56560714Y-29970998D01*
X56560714Y-29970998D02*
X56636905Y-29932902D01*
X56636905Y-29932902D02*
X56789286Y-29894807D01*
X56789286Y-29894807D02*
X56865476Y-29856712D01*
X56865476Y-29856712D02*
X56903571Y-29818617D01*
X56903571Y-29818617D02*
X56941667Y-29742426D01*
X56941667Y-29742426D02*
X56941667Y-29666236D01*
X56941667Y-29666236D02*
X56903571Y-29590045D01*
X56903571Y-29590045D02*
X56865476Y-29551950D01*
X56865476Y-29551950D02*
X56789286Y-29513855D01*
X56789286Y-29513855D02*
X56598809Y-29513855D01*
X56598809Y-29513855D02*
X56484524Y-29551950D01*
X56217857Y-29513855D02*
X56027381Y-30313855D01*
X56027381Y-30313855D02*
X55875000Y-29742426D01*
X55875000Y-29742426D02*
X55722619Y-30313855D01*
X55722619Y-30313855D02*
X55532143Y-29513855D01*
X55303571Y-29513855D02*
X54808333Y-29513855D01*
X54808333Y-29513855D02*
X55074999Y-29818617D01*
X55074999Y-29818617D02*
X54960714Y-29818617D01*
X54960714Y-29818617D02*
X54884523Y-29856712D01*
X54884523Y-29856712D02*
X54846428Y-29894807D01*
X54846428Y-29894807D02*
X54808333Y-29970998D01*
X54808333Y-29970998D02*
X54808333Y-30161474D01*
X54808333Y-30161474D02*
X54846428Y-30237664D01*
X54846428Y-30237664D02*
X54884523Y-30275760D01*
X54884523Y-30275760D02*
X54960714Y-30313855D01*
X54960714Y-30313855D02*
X55189285Y-30313855D01*
X55189285Y-30313855D02*
X55265476Y-30275760D01*
X55265476Y-30275760D02*
X55303571Y-30237664D01*
X18841667Y-68375760D02*
X18727381Y-68413855D01*
X18727381Y-68413855D02*
X18536905Y-68413855D01*
X18536905Y-68413855D02*
X18460714Y-68375760D01*
X18460714Y-68375760D02*
X18422619Y-68337664D01*
X18422619Y-68337664D02*
X18384524Y-68261474D01*
X18384524Y-68261474D02*
X18384524Y-68185283D01*
X18384524Y-68185283D02*
X18422619Y-68109093D01*
X18422619Y-68109093D02*
X18460714Y-68070998D01*
X18460714Y-68070998D02*
X18536905Y-68032902D01*
X18536905Y-68032902D02*
X18689286Y-67994807D01*
X18689286Y-67994807D02*
X18765476Y-67956712D01*
X18765476Y-67956712D02*
X18803571Y-67918617D01*
X18803571Y-67918617D02*
X18841667Y-67842426D01*
X18841667Y-67842426D02*
X18841667Y-67766236D01*
X18841667Y-67766236D02*
X18803571Y-67690045D01*
X18803571Y-67690045D02*
X18765476Y-67651950D01*
X18765476Y-67651950D02*
X18689286Y-67613855D01*
X18689286Y-67613855D02*
X18498809Y-67613855D01*
X18498809Y-67613855D02*
X18384524Y-67651950D01*
X18117857Y-67613855D02*
X17927381Y-68413855D01*
X17927381Y-68413855D02*
X17775000Y-67842426D01*
X17775000Y-67842426D02*
X17622619Y-68413855D01*
X17622619Y-68413855D02*
X17432143Y-67613855D01*
X17089285Y-68413855D02*
X16936904Y-68413855D01*
X16936904Y-68413855D02*
X16860714Y-68375760D01*
X16860714Y-68375760D02*
X16822618Y-68337664D01*
X16822618Y-68337664D02*
X16746428Y-68223379D01*
X16746428Y-68223379D02*
X16708333Y-68070998D01*
X16708333Y-68070998D02*
X16708333Y-67766236D01*
X16708333Y-67766236D02*
X16746428Y-67690045D01*
X16746428Y-67690045D02*
X16784523Y-67651950D01*
X16784523Y-67651950D02*
X16860714Y-67613855D01*
X16860714Y-67613855D02*
X17013095Y-67613855D01*
X17013095Y-67613855D02*
X17089285Y-67651950D01*
X17089285Y-67651950D02*
X17127380Y-67690045D01*
X17127380Y-67690045D02*
X17165476Y-67766236D01*
X17165476Y-67766236D02*
X17165476Y-67956712D01*
X17165476Y-67956712D02*
X17127380Y-68032902D01*
X17127380Y-68032902D02*
X17089285Y-68070998D01*
X17089285Y-68070998D02*
X17013095Y-68109093D01*
X17013095Y-68109093D02*
X16860714Y-68109093D01*
X16860714Y-68109093D02*
X16784523Y-68070998D01*
X16784523Y-68070998D02*
X16746428Y-68032902D01*
X16746428Y-68032902D02*
X16708333Y-67956712D01*
X47797619Y-87425760D02*
X47683333Y-87463855D01*
X47683333Y-87463855D02*
X47492857Y-87463855D01*
X47492857Y-87463855D02*
X47416666Y-87425760D01*
X47416666Y-87425760D02*
X47378571Y-87387664D01*
X47378571Y-87387664D02*
X47340476Y-87311474D01*
X47340476Y-87311474D02*
X47340476Y-87235283D01*
X47340476Y-87235283D02*
X47378571Y-87159093D01*
X47378571Y-87159093D02*
X47416666Y-87120998D01*
X47416666Y-87120998D02*
X47492857Y-87082902D01*
X47492857Y-87082902D02*
X47645238Y-87044807D01*
X47645238Y-87044807D02*
X47721428Y-87006712D01*
X47721428Y-87006712D02*
X47759523Y-86968617D01*
X47759523Y-86968617D02*
X47797619Y-86892426D01*
X47797619Y-86892426D02*
X47797619Y-86816236D01*
X47797619Y-86816236D02*
X47759523Y-86740045D01*
X47759523Y-86740045D02*
X47721428Y-86701950D01*
X47721428Y-86701950D02*
X47645238Y-86663855D01*
X47645238Y-86663855D02*
X47454761Y-86663855D01*
X47454761Y-86663855D02*
X47340476Y-86701950D01*
X47073809Y-86663855D02*
X46883333Y-87463855D01*
X46883333Y-87463855D02*
X46730952Y-86892426D01*
X46730952Y-86892426D02*
X46578571Y-87463855D01*
X46578571Y-87463855D02*
X46388095Y-86663855D01*
X45664285Y-87463855D02*
X46121428Y-87463855D01*
X45892856Y-87463855D02*
X45892856Y-86663855D01*
X45892856Y-86663855D02*
X45969047Y-86778140D01*
X45969047Y-86778140D02*
X46045237Y-86854331D01*
X46045237Y-86854331D02*
X46121428Y-86892426D01*
X45397618Y-86663855D02*
X44902380Y-86663855D01*
X44902380Y-86663855D02*
X45169046Y-86968617D01*
X45169046Y-86968617D02*
X45054761Y-86968617D01*
X45054761Y-86968617D02*
X44978570Y-87006712D01*
X44978570Y-87006712D02*
X44940475Y-87044807D01*
X44940475Y-87044807D02*
X44902380Y-87120998D01*
X44902380Y-87120998D02*
X44902380Y-87311474D01*
X44902380Y-87311474D02*
X44940475Y-87387664D01*
X44940475Y-87387664D02*
X44978570Y-87425760D01*
X44978570Y-87425760D02*
X45054761Y-87463855D01*
X45054761Y-87463855D02*
X45283332Y-87463855D01*
X45283332Y-87463855D02*
X45359523Y-87425760D01*
X45359523Y-87425760D02*
X45397618Y-87387664D01*
X53609523Y-25211855D02*
X53152380Y-25211855D01*
X53380952Y-26011855D02*
X53380952Y-25211855D01*
X52885713Y-26011855D02*
X52885713Y-25211855D01*
X52885713Y-25211855D02*
X52580951Y-25211855D01*
X52580951Y-25211855D02*
X52504761Y-25249950D01*
X52504761Y-25249950D02*
X52466666Y-25288045D01*
X52466666Y-25288045D02*
X52428570Y-25364236D01*
X52428570Y-25364236D02*
X52428570Y-25478521D01*
X52428570Y-25478521D02*
X52466666Y-25554712D01*
X52466666Y-25554712D02*
X52504761Y-25592807D01*
X52504761Y-25592807D02*
X52580951Y-25630902D01*
X52580951Y-25630902D02*
X52885713Y-25630902D01*
X51742856Y-25478521D02*
X51742856Y-26011855D01*
X51933332Y-25173760D02*
X52123809Y-25745188D01*
X52123809Y-25745188D02*
X51628570Y-25745188D01*
X40943855Y-40733333D02*
X41515283Y-40733333D01*
X41515283Y-40733333D02*
X41629569Y-40695238D01*
X41629569Y-40695238D02*
X41705760Y-40619047D01*
X41705760Y-40619047D02*
X41743855Y-40504762D01*
X41743855Y-40504762D02*
X41743855Y-40428571D01*
X41020045Y-41076190D02*
X40981950Y-41114286D01*
X40981950Y-41114286D02*
X40943855Y-41190476D01*
X40943855Y-41190476D02*
X40943855Y-41380952D01*
X40943855Y-41380952D02*
X40981950Y-41457143D01*
X40981950Y-41457143D02*
X41020045Y-41495238D01*
X41020045Y-41495238D02*
X41096236Y-41533333D01*
X41096236Y-41533333D02*
X41172426Y-41533333D01*
X41172426Y-41533333D02*
X41286712Y-41495238D01*
X41286712Y-41495238D02*
X41743855Y-41038095D01*
X41743855Y-41038095D02*
X41743855Y-41533333D01*
X76372619Y-68375760D02*
X76258333Y-68413855D01*
X76258333Y-68413855D02*
X76067857Y-68413855D01*
X76067857Y-68413855D02*
X75991666Y-68375760D01*
X75991666Y-68375760D02*
X75953571Y-68337664D01*
X75953571Y-68337664D02*
X75915476Y-68261474D01*
X75915476Y-68261474D02*
X75915476Y-68185283D01*
X75915476Y-68185283D02*
X75953571Y-68109093D01*
X75953571Y-68109093D02*
X75991666Y-68070998D01*
X75991666Y-68070998D02*
X76067857Y-68032902D01*
X76067857Y-68032902D02*
X76220238Y-67994807D01*
X76220238Y-67994807D02*
X76296428Y-67956712D01*
X76296428Y-67956712D02*
X76334523Y-67918617D01*
X76334523Y-67918617D02*
X76372619Y-67842426D01*
X76372619Y-67842426D02*
X76372619Y-67766236D01*
X76372619Y-67766236D02*
X76334523Y-67690045D01*
X76334523Y-67690045D02*
X76296428Y-67651950D01*
X76296428Y-67651950D02*
X76220238Y-67613855D01*
X76220238Y-67613855D02*
X76029761Y-67613855D01*
X76029761Y-67613855D02*
X75915476Y-67651950D01*
X75648809Y-67613855D02*
X75458333Y-68413855D01*
X75458333Y-68413855D02*
X75305952Y-67842426D01*
X75305952Y-67842426D02*
X75153571Y-68413855D01*
X75153571Y-68413855D02*
X74963095Y-67613855D01*
X74239285Y-68413855D02*
X74696428Y-68413855D01*
X74467856Y-68413855D02*
X74467856Y-67613855D01*
X74467856Y-67613855D02*
X74544047Y-67728140D01*
X74544047Y-67728140D02*
X74620237Y-67804331D01*
X74620237Y-67804331D02*
X74696428Y-67842426D01*
X73934523Y-67690045D02*
X73896427Y-67651950D01*
X73896427Y-67651950D02*
X73820237Y-67613855D01*
X73820237Y-67613855D02*
X73629761Y-67613855D01*
X73629761Y-67613855D02*
X73553570Y-67651950D01*
X73553570Y-67651950D02*
X73515475Y-67690045D01*
X73515475Y-67690045D02*
X73477380Y-67766236D01*
X73477380Y-67766236D02*
X73477380Y-67842426D01*
X73477380Y-67842426D02*
X73515475Y-67956712D01*
X73515475Y-67956712D02*
X73972618Y-68413855D01*
X73972618Y-68413855D02*
X73477380Y-68413855D01*
%TO.C,U1*%
X38490000Y-12890000D02*
X38490000Y-13540000D01*
X38490000Y-19460000D02*
X38490000Y-20110000D01*
X38490000Y-20110000D02*
X39140000Y-20110000D01*
X39140000Y-12890000D02*
X38490000Y-12890000D01*
X45060000Y-20110000D02*
X45710000Y-20110000D01*
X45710000Y-12890000D02*
X45060000Y-12890000D01*
X45710000Y-13540000D02*
X45710000Y-12890000D01*
X45710000Y-20110000D02*
X45710000Y-19460000D01*
X44940000Y-20970000D02*
X44460000Y-20970000D01*
X44700000Y-20640000D01*
X44940000Y-20970000D01*
G36*
X44940000Y-20970000D02*
G01*
X44460000Y-20970000D01*
X44700000Y-20640000D01*
X44940000Y-20970000D01*
G37*
%TO.C,C11*%
X46892164Y-12840000D02*
X47107836Y-12840000D01*
X46892164Y-13560000D02*
X47107836Y-13560000D01*
%TO.C,R6*%
X52346359Y-22120000D02*
X52653641Y-22120000D01*
X52346359Y-22880000D02*
X52653641Y-22880000D01*
D11*
%TO.C,LED21*%
X16300000Y-95650000D02*
X16300000Y-96550000D01*
X16650000Y-97400000D02*
X16300000Y-96550000D01*
X20300000Y-95650000D02*
X16300000Y-95650000D01*
X20300000Y-96550000D02*
X19950000Y-97400000D01*
X20300000Y-96550000D02*
X20300000Y-95650000D01*
D10*
X17027500Y-96150000D02*
X16829510Y-95952010D01*
X17225490Y-95952010D01*
X17027500Y-96150000D01*
G36*
X17027500Y-96150000D02*
G01*
X16829510Y-95952010D01*
X17225490Y-95952010D01*
X17027500Y-96150000D01*
G37*
D12*
%TO.C,SW8*%
X64589824Y-46799780D02*
X64589824Y-45999780D01*
X64589824Y-49649780D02*
X64589824Y-49889780D01*
X66589824Y-43999780D02*
X72489824Y-43999780D01*
X73989824Y-43999780D02*
X75539824Y-43999780D01*
X75039824Y-48049780D02*
X70475000Y-48049780D01*
X75539824Y-43999780D02*
X75539824Y-44229780D01*
X75539824Y-47079780D02*
X75539824Y-47549780D01*
X64589824Y-45999780D02*
G75*
G02*
X66589824Y-43999780I2000004J-4D01*
G01*
X68180678Y-49889780D02*
G75*
G02*
X70475000Y-48049780I2293456J-509332D01*
G01*
X75539824Y-47549780D02*
G75*
G02*
X75039824Y-48049780I-500001J1D01*
G01*
D10*
%TO.C,TP1*%
X37250000Y-14200000D02*
G75*
G02*
X35350000Y-14200000I-950000J0D01*
G01*
X35350000Y-14200000D02*
G75*
G02*
X37250000Y-14200000I950000J0D01*
G01*
%TO.C,R11*%
X66346359Y-22120000D02*
X66653641Y-22120000D01*
X66346359Y-22880000D02*
X66653641Y-22880000D01*
%TO.C,LED3*%
X48125000Y-34450000D02*
X47645000Y-34450000D01*
X48125000Y-33970000D01*
X48125000Y-34450000D01*
G36*
X48125000Y-34450000D02*
G01*
X47645000Y-34450000D01*
X48125000Y-33970000D01*
X48125000Y-34450000D01*
G37*
%TO.C,C16*%
X8111629Y-33850018D02*
X8634133Y-33850018D01*
X8111629Y-35320018D02*
X8634133Y-35320018D01*
D11*
%TO.C,LED19*%
X79350000Y-68350000D02*
X79350000Y-72350000D01*
X79350000Y-72350000D02*
X80250000Y-72350000D01*
X80250000Y-68350000D02*
X79350000Y-68350000D01*
X80250000Y-68350000D02*
X81100000Y-68700000D01*
X81100000Y-72000000D02*
X80250000Y-72350000D01*
D10*
X79850000Y-71622500D02*
X79652010Y-71820490D01*
X79652010Y-71424510D01*
X79850000Y-71622500D01*
G36*
X79850000Y-71622500D02*
G01*
X79652010Y-71820490D01*
X79652010Y-71424510D01*
X79850000Y-71622500D01*
G37*
%TO.C,C1*%
X45892164Y-11640000D02*
X46107836Y-11640000D01*
X45892164Y-12360000D02*
X46107836Y-12360000D01*
%TO.C,C22*%
X30892164Y-83990000D02*
X31107836Y-83990000D01*
X30892164Y-84710000D02*
X31107836Y-84710000D01*
D11*
%TO.C,LED23*%
X3900000Y-58700000D02*
X4750000Y-58350000D01*
X4750000Y-62350000D02*
X3900000Y-62000000D01*
X4750000Y-62350000D02*
X5650000Y-62350000D01*
X5650000Y-58350000D02*
X4750000Y-58350000D01*
X5650000Y-62350000D02*
X5650000Y-58350000D01*
D10*
X5347990Y-59275490D02*
X5150000Y-59077500D01*
X5347990Y-58879510D01*
X5347990Y-59275490D01*
G36*
X5347990Y-59275490D02*
G01*
X5150000Y-59077500D01*
X5347990Y-58879510D01*
X5347990Y-59275490D01*
G37*
%TO.C,C23*%
X63392164Y-22140000D02*
X63607836Y-22140000D01*
X63392164Y-22860000D02*
X63607836Y-22860000D01*
%TO.C,C24*%
X73392164Y-22140000D02*
X73607836Y-22140000D01*
X73392164Y-22860000D02*
X73607836Y-22860000D01*
%TO.C,C44*%
X80664706Y-72367640D02*
X80880378Y-72367640D01*
X80664706Y-73087640D02*
X80880378Y-73087640D01*
%TO.C,R5*%
X34146359Y-20820000D02*
X34453641Y-20820000D01*
X34146359Y-21580000D02*
X34453641Y-21580000D01*
%TO.C,LED13*%
X38600000Y-91600000D02*
X38120000Y-91600000D01*
X38600000Y-91120000D01*
X38600000Y-91600000D01*
G36*
X38600000Y-91600000D02*
G01*
X38120000Y-91600000D01*
X38600000Y-91120000D01*
X38600000Y-91600000D01*
G37*
D12*
%TO.C,SW6*%
X26489824Y-46799780D02*
X26489824Y-45999780D01*
X26489824Y-49649780D02*
X26489824Y-49889780D01*
X28489824Y-43999780D02*
X34389824Y-43999780D01*
X35889824Y-43999780D02*
X37439824Y-43999780D01*
X36939824Y-48049780D02*
X32375000Y-48049780D01*
X37439824Y-43999780D02*
X37439824Y-44229780D01*
X37439824Y-47079780D02*
X37439824Y-47549780D01*
X26489824Y-45999780D02*
G75*
G02*
X28489824Y-43999780I2000004J-4D01*
G01*
X30080678Y-49889780D02*
G75*
G02*
X32375000Y-48049780I2293456J-509332D01*
G01*
X37439824Y-47549780D02*
G75*
G02*
X36939824Y-48049780I-500001J1D01*
G01*
%TO.C,SW10*%
X26489824Y-65849780D02*
X26489824Y-65049780D01*
X26489824Y-68699780D02*
X26489824Y-68939780D01*
X28489824Y-63049780D02*
X34389824Y-63049780D01*
X35889824Y-63049780D02*
X37439824Y-63049780D01*
X36939824Y-67099780D02*
X32375000Y-67099780D01*
X37439824Y-63049780D02*
X37439824Y-63279780D01*
X37439824Y-66129780D02*
X37439824Y-66599780D01*
X26489824Y-65049780D02*
G75*
G02*
X28489824Y-63049780I2000004J-4D01*
G01*
X30080678Y-68939780D02*
G75*
G02*
X32375000Y-67099780I2293456J-509332D01*
G01*
X37439824Y-66599780D02*
G75*
G02*
X36939824Y-67099780I-500001J1D01*
G01*
D10*
%TO.C,C15*%
X22892164Y-27640000D02*
X23107836Y-27640000D01*
X22892164Y-28360000D02*
X23107836Y-28360000D01*
%TO.C,C45*%
X65824869Y-91986335D02*
X66040541Y-91986335D01*
X65824869Y-92706335D02*
X66040541Y-92706335D01*
D12*
%TO.C,SW11*%
X45539824Y-65849780D02*
X45539824Y-65049780D01*
X45539824Y-68699780D02*
X45539824Y-68939780D01*
X47539824Y-63049780D02*
X53439824Y-63049780D01*
X54939824Y-63049780D02*
X56489824Y-63049780D01*
X55989824Y-67099780D02*
X51425000Y-67099780D01*
X56489824Y-63049780D02*
X56489824Y-63279780D01*
X56489824Y-66129780D02*
X56489824Y-66599780D01*
X45539824Y-65049780D02*
G75*
G02*
X47539824Y-63049780I2000004J-4D01*
G01*
X49130678Y-68939780D02*
G75*
G02*
X51425000Y-67099780I2293456J-509332D01*
G01*
X56489824Y-66599780D02*
G75*
G02*
X55989824Y-67099780I-500001J1D01*
G01*
D10*
%TO.C,C34*%
X18917164Y-73440000D02*
X19132836Y-73440000D01*
X18917164Y-74160000D02*
X19132836Y-74160000D01*
%TO.C,C5*%
X49292164Y-23240000D02*
X49507836Y-23240000D01*
X49292164Y-23960000D02*
X49507836Y-23960000D01*
D12*
%TO.C,SW5*%
X7439824Y-46799780D02*
X7439824Y-45999780D01*
X7439824Y-49649780D02*
X7439824Y-49889780D01*
X9439824Y-43999780D02*
X15339824Y-43999780D01*
X16839824Y-43999780D02*
X18389824Y-43999780D01*
X17889824Y-48049780D02*
X13325000Y-48049780D01*
X18389824Y-43999780D02*
X18389824Y-44229780D01*
X18389824Y-47079780D02*
X18389824Y-47549780D01*
X7439824Y-45999780D02*
G75*
G02*
X9439824Y-43999780I2000004J-4D01*
G01*
X11030678Y-49889780D02*
G75*
G02*
X13325000Y-48049780I2293456J-509332D01*
G01*
X18389824Y-47549780D02*
G75*
G02*
X17889824Y-48049780I-500001J1D01*
G01*
D10*
%TO.C,LED5*%
X10025000Y-53500000D02*
X9545000Y-53500000D01*
X10025000Y-53020000D01*
X10025000Y-53500000D01*
G36*
X10025000Y-53500000D02*
G01*
X9545000Y-53500000D01*
X10025000Y-53020000D01*
X10025000Y-53500000D01*
G37*
%TO.C,R2*%
X53220000Y-2753641D02*
X53220000Y-2446359D01*
X53980000Y-2753641D02*
X53980000Y-2446359D01*
D11*
%TO.C,LED20*%
X63694952Y-93724007D02*
X63694952Y-94624007D01*
X64044952Y-95474007D02*
X63694952Y-94624007D01*
X67694952Y-93724007D02*
X63694952Y-93724007D01*
X67694952Y-94624007D02*
X67344952Y-95474007D01*
X67694952Y-94624007D02*
X67694952Y-93724007D01*
D10*
X64422452Y-94224007D02*
X64224462Y-94026017D01*
X64620442Y-94026017D01*
X64422452Y-94224007D01*
G36*
X64422452Y-94224007D02*
G01*
X64224462Y-94026017D01*
X64620442Y-94026017D01*
X64422452Y-94224007D01*
G37*
D11*
%TO.C,LED17*%
X79350000Y-31350000D02*
X79350000Y-35350000D01*
X79350000Y-35350000D02*
X80250000Y-35350000D01*
X80250000Y-31350000D02*
X79350000Y-31350000D01*
X80250000Y-31350000D02*
X81100000Y-31700000D01*
X81100000Y-35000000D02*
X80250000Y-35350000D01*
D10*
X79850000Y-34622500D02*
X79652010Y-34820490D01*
X79652010Y-34424510D01*
X79850000Y-34622500D01*
G36*
X79850000Y-34622500D02*
G01*
X79652010Y-34820490D01*
X79652010Y-34424510D01*
X79850000Y-34622500D01*
G37*
%TO.C,LED12*%
X67175000Y-72550000D02*
X66695000Y-72550000D01*
X67175000Y-72070000D01*
X67175000Y-72550000D01*
G36*
X67175000Y-72550000D02*
G01*
X66695000Y-72550000D01*
X67175000Y-72070000D01*
X67175000Y-72550000D01*
G37*
%TO.C,TP3*%
X53550000Y-9600000D02*
G75*
G02*
X51650000Y-9600000I-950000J0D01*
G01*
X51650000Y-9600000D02*
G75*
G02*
X53550000Y-9600000I950000J0D01*
G01*
%TO.C,U6*%
X26090000Y-87290000D02*
X26090000Y-87340000D01*
X26090000Y-90360000D02*
X26090000Y-90410000D01*
X26090000Y-90410000D02*
X27910000Y-90410000D01*
X27910000Y-87290000D02*
X26090000Y-87290000D01*
X27910000Y-87340000D02*
X27910000Y-87290000D01*
X27910000Y-90410000D02*
X27910000Y-90360000D01*
X25790000Y-90690000D02*
X25310000Y-90690000D01*
X25550000Y-90360000D01*
X25790000Y-90690000D01*
G36*
X25790000Y-90690000D02*
G01*
X25310000Y-90690000D01*
X25550000Y-90360000D01*
X25790000Y-90690000D01*
G37*
%TO.C,C12*%
X50492164Y-21040000D02*
X50707836Y-21040000D01*
X50492164Y-21760000D02*
X50707836Y-21760000D01*
%TO.C,R7*%
X72346359Y-82120000D02*
X72653641Y-82120000D01*
X72346359Y-82880000D02*
X72653641Y-82880000D01*
%TO.C,J1*%
X37400000Y850000D02*
X46800000Y850000D01*
X37400000Y-1050000D02*
X37400000Y850000D01*
X37400000Y-4950000D02*
X37400000Y-2950000D01*
X46800000Y-1050000D02*
X46800000Y850000D01*
X46800000Y-4950000D02*
X46800000Y-2950000D01*
%TO.C,R1*%
X52120000Y-2753641D02*
X52120000Y-2446359D01*
X52880000Y-2753641D02*
X52880000Y-2446359D01*
%TO.C,C9*%
X65192164Y-14140000D02*
X65407836Y-14140000D01*
X65192164Y-14860000D02*
X65407836Y-14860000D01*
%TO.C,C41*%
X51950164Y-3774000D02*
X52165836Y-3774000D01*
X51950164Y-4494000D02*
X52165836Y-4494000D01*
%TO.C,U5*%
X10440000Y-39090000D02*
X10440000Y-40910000D01*
X10440000Y-40910000D02*
X10490000Y-40910000D01*
X10490000Y-39090000D02*
X10440000Y-39090000D01*
X13510000Y-40910000D02*
X13560000Y-40910000D01*
X13560000Y-39090000D02*
X13510000Y-39090000D01*
X13560000Y-40910000D02*
X13560000Y-39090000D01*
X13840000Y-41690000D02*
X13510000Y-41450000D01*
X13840000Y-41210000D01*
X13840000Y-41690000D01*
G36*
X13840000Y-41690000D02*
G01*
X13510000Y-41450000D01*
X13840000Y-41210000D01*
X13840000Y-41690000D01*
G37*
%TO.C,C47*%
X6392164Y-78990000D02*
X6607836Y-78990000D01*
X6392164Y-79710000D02*
X6607836Y-79710000D01*
%TO.C,C29*%
X71088108Y-38294423D02*
X71303780Y-38294423D01*
X71088108Y-39014423D02*
X71303780Y-39014423D01*
%TO.C,LED2*%
X29075000Y-34450000D02*
X28595000Y-34450000D01*
X29075000Y-33970000D01*
X29075000Y-34450000D01*
G36*
X29075000Y-34450000D02*
G01*
X28595000Y-34450000D01*
X29075000Y-33970000D01*
X29075000Y-34450000D01*
G37*
%TO.C,SW14*%
X60770000Y-85620000D02*
X60770000Y-85650000D01*
X60770000Y-85620000D02*
X67230000Y-85620000D01*
X60770000Y-90150000D02*
X60770000Y-87550000D01*
X60770000Y-92050000D02*
X60770000Y-92080000D01*
X60770000Y-92080000D02*
X67230000Y-92080000D01*
X67230000Y-85620000D02*
X67230000Y-85650000D01*
X67230000Y-90150000D02*
X67230000Y-87550000D01*
X67230000Y-92080000D02*
X67230000Y-92050000D01*
D12*
%TO.C,SW7*%
X45539824Y-46799780D02*
X45539824Y-45999780D01*
X45539824Y-49649780D02*
X45539824Y-49889780D01*
X47539824Y-43999780D02*
X53439824Y-43999780D01*
X54939824Y-43999780D02*
X56489824Y-43999780D01*
X55989824Y-48049780D02*
X51425000Y-48049780D01*
X56489824Y-43999780D02*
X56489824Y-44229780D01*
X56489824Y-47079780D02*
X56489824Y-47549780D01*
X45539824Y-45999780D02*
G75*
G02*
X47539824Y-43999780I2000004J-4D01*
G01*
X49130678Y-49889780D02*
G75*
G02*
X51425000Y-48049780I2293456J-509332D01*
G01*
X56489824Y-47549780D02*
G75*
G02*
X55989824Y-48049780I-500001J1D01*
G01*
D10*
%TO.C,C14*%
X3853186Y-32142562D02*
X4068858Y-32142562D01*
X3853186Y-32862562D02*
X4068858Y-32862562D01*
%TO.C,C37*%
X71088108Y-76394422D02*
X71303780Y-76394422D01*
X71088108Y-77114422D02*
X71303780Y-77114422D01*
%TO.C,C28*%
X52038108Y-38294423D02*
X52253780Y-38294423D01*
X52038108Y-39014423D02*
X52253780Y-39014423D01*
D11*
%TO.C,LED22*%
X3900000Y-77700000D02*
X4750000Y-77350000D01*
X4750000Y-81350000D02*
X3900000Y-81000000D01*
X4750000Y-81350000D02*
X5650000Y-81350000D01*
X5650000Y-77350000D02*
X4750000Y-77350000D01*
X5650000Y-81350000D02*
X5650000Y-77350000D01*
D10*
X5347990Y-78275490D02*
X5150000Y-78077500D01*
X5347990Y-77879510D01*
X5347990Y-78275490D01*
G36*
X5347990Y-78275490D02*
G01*
X5150000Y-78077500D01*
X5347990Y-77879510D01*
X5347990Y-78275490D01*
G37*
%TO.C,C10*%
X56640000Y-10107836D02*
X56640000Y-9892164D01*
X57360000Y-10107836D02*
X57360000Y-9892164D01*
%TO.C,LED4*%
X67175000Y-34450000D02*
X66695000Y-34450000D01*
X67175000Y-33970000D01*
X67175000Y-34450000D01*
G36*
X67175000Y-34450000D02*
G01*
X66695000Y-34450000D01*
X67175000Y-33970000D01*
X67175000Y-34450000D01*
G37*
%TO.C,C38*%
X42513108Y-95444423D02*
X42728780Y-95444423D01*
X42513108Y-96164423D02*
X42728780Y-96164423D01*
%TO.C,C46*%
X19095164Y-93740000D02*
X19310836Y-93740000D01*
X19095164Y-94460000D02*
X19310836Y-94460000D01*
%TO.C,LED6*%
X29075000Y-53500000D02*
X28595000Y-53500000D01*
X29075000Y-53020000D01*
X29075000Y-53500000D01*
G36*
X29075000Y-53500000D02*
G01*
X28595000Y-53500000D01*
X29075000Y-53020000D01*
X29075000Y-53500000D01*
G37*
%TO.C,C49*%
X6392164Y-40990000D02*
X6607836Y-40990000D01*
X6392164Y-41710000D02*
X6607836Y-41710000D01*
%TO.C,SW15*%
X69270000Y-85070000D02*
X69300000Y-85070000D01*
X69270000Y-91530000D02*
X69270000Y-85070000D01*
X69270000Y-91530000D02*
X69300000Y-91530000D01*
X73800000Y-85070000D02*
X71200000Y-85070000D01*
X73800000Y-91530000D02*
X71200000Y-91530000D01*
X75700000Y-91530000D02*
X75730000Y-91530000D01*
X75730000Y-85070000D02*
X75700000Y-85070000D01*
X75730000Y-91530000D02*
X75730000Y-85070000D01*
%TO.C,C19*%
X30892164Y-19240000D02*
X31107836Y-19240000D01*
X30892164Y-19960000D02*
X31107836Y-19960000D01*
%TO.C,C40*%
X31950164Y-3774000D02*
X32165836Y-3774000D01*
X31950164Y-4494000D02*
X32165836Y-4494000D01*
%TO.C,C32*%
X52038108Y-57344423D02*
X52253780Y-57344423D01*
X52038108Y-58064423D02*
X52253780Y-58064423D01*
D11*
%TO.C,LED15*%
X30000000Y-4350000D02*
X30000000Y-5250000D01*
X30350000Y-6100000D02*
X30000000Y-5250000D01*
X34000000Y-4350000D02*
X30000000Y-4350000D01*
X34000000Y-5250000D02*
X33650000Y-6100000D01*
X34000000Y-5250000D02*
X34000000Y-4350000D01*
D10*
X30727500Y-4850000D02*
X30529510Y-4652010D01*
X30925490Y-4652010D01*
X30727500Y-4850000D01*
G36*
X30727500Y-4850000D02*
G01*
X30529510Y-4652010D01*
X30925490Y-4652010D01*
X30727500Y-4850000D01*
G37*
%TO.C,Y1*%
X31940000Y-16690000D02*
X36060000Y-16690000D01*
X31940000Y-20110000D02*
X31940000Y-16690000D01*
%TO.C,C18*%
X30892164Y-16840000D02*
X31107836Y-16840000D01*
X30892164Y-17560000D02*
X31107836Y-17560000D01*
%TO.C,C3*%
X49692164Y-9440000D02*
X49907836Y-9440000D01*
X49692164Y-10160000D02*
X49907836Y-10160000D01*
%TO.C,LED1*%
X10025000Y-34450000D02*
X9545000Y-34450000D01*
X10025000Y-33970000D01*
X10025000Y-34450000D01*
G36*
X10025000Y-34450000D02*
G01*
X9545000Y-34450000D01*
X10025000Y-33970000D01*
X10025000Y-34450000D01*
G37*
%TO.C,C39*%
X18917164Y-78990000D02*
X19132836Y-78990000D01*
X18917164Y-79710000D02*
X19132836Y-79710000D01*
%TO.C,R10*%
X31846359Y-88470000D02*
X32153641Y-88470000D01*
X31846359Y-89230000D02*
X32153641Y-89230000D01*
%TO.C,C25*%
X32000328Y-85961620D02*
X32216000Y-85961620D01*
X32000328Y-86681620D02*
X32216000Y-86681620D01*
%TO.C,C7*%
X48692164Y-20040000D02*
X48907836Y-20040000D01*
X48692164Y-20760000D02*
X48907836Y-20760000D01*
%TO.C,LED9*%
X10025000Y-72550000D02*
X9545000Y-72550000D01*
X10025000Y-72070000D01*
X10025000Y-72550000D01*
G36*
X10025000Y-72550000D02*
G01*
X9545000Y-72550000D01*
X10025000Y-72070000D01*
X10025000Y-72550000D01*
G37*
%TO.C,U2*%
X51240000Y-13740000D02*
X51240000Y-19260000D01*
X51240000Y-19260000D02*
X51510000Y-19260000D01*
X51510000Y-13740000D02*
X51240000Y-13740000D01*
X56490000Y-19260000D02*
X56760000Y-19260000D01*
X56760000Y-13740000D02*
X56490000Y-13740000D01*
X56760000Y-19260000D02*
X56760000Y-13740000D01*
X56970000Y-20430000D02*
X56500000Y-20090000D01*
X56970000Y-19750000D01*
X56970000Y-20430000D01*
G36*
X56970000Y-20430000D02*
G01*
X56500000Y-20090000D01*
X56970000Y-19750000D01*
X56970000Y-20430000D01*
G37*
%TO.C,D1*%
X53890000Y-1350000D02*
X56550000Y-1350000D01*
X53890000Y-3050000D02*
X53890000Y-1350000D01*
X53890000Y-3050000D02*
X56550000Y-3050000D01*
D12*
%TO.C,SW1*%
X7439824Y-27749780D02*
X7439824Y-26949780D01*
X7439824Y-30599780D02*
X7439824Y-30839780D01*
X9439824Y-24949780D02*
X15339824Y-24949780D01*
X16839824Y-24949780D02*
X18389824Y-24949780D01*
X17889824Y-28999780D02*
X13325000Y-28999780D01*
X18389824Y-24949780D02*
X18389824Y-25179780D01*
X18389824Y-28029780D02*
X18389824Y-28499780D01*
X7439824Y-26949780D02*
G75*
G02*
X9439824Y-24949780I2000004J-4D01*
G01*
X11030678Y-30839780D02*
G75*
G02*
X13325000Y-28999780I2293456J-509332D01*
G01*
X18389824Y-28499780D02*
G75*
G02*
X17889824Y-28999780I-500001J1D01*
G01*
D10*
%TO.C,R9*%
X40446359Y-10520000D02*
X40753641Y-10520000D01*
X40446359Y-11280000D02*
X40753641Y-11280000D01*
%TO.C,C21*%
X14392164Y-42240000D02*
X14607836Y-42240000D01*
X14392164Y-42960000D02*
X14607836Y-42960000D01*
%TO.C,R3*%
X49620000Y-12153641D02*
X49620000Y-11846359D01*
X50380000Y-12153641D02*
X50380000Y-11846359D01*
%TO.C,C4*%
X48092164Y-22040000D02*
X48307836Y-22040000D01*
X48092164Y-22760000D02*
X48307836Y-22760000D01*
D12*
%TO.C,SW4*%
X64589824Y-27749780D02*
X64589824Y-26949780D01*
X64589824Y-30599780D02*
X64589824Y-30839780D01*
X66589824Y-24949780D02*
X72489824Y-24949780D01*
X73989824Y-24949780D02*
X75539824Y-24949780D01*
X75039824Y-28999780D02*
X70475000Y-28999780D01*
X75539824Y-24949780D02*
X75539824Y-25179780D01*
X75539824Y-28029780D02*
X75539824Y-28499780D01*
X64589824Y-26949780D02*
G75*
G02*
X66589824Y-24949780I2000004J-4D01*
G01*
X68180678Y-30839780D02*
G75*
G02*
X70475000Y-28999780I2293456J-509332D01*
G01*
X75539824Y-28499780D02*
G75*
G02*
X75039824Y-28999780I-500001J1D01*
G01*
D10*
%TO.C,C20*%
X11892164Y-42240000D02*
X12107836Y-42240000D01*
X11892164Y-42960000D02*
X12107836Y-42960000D01*
%TO.C,LED7*%
X48125000Y-53500000D02*
X47645000Y-53500000D01*
X48125000Y-53020000D01*
X48125000Y-53500000D01*
G36*
X48125000Y-53500000D02*
G01*
X47645000Y-53500000D01*
X48125000Y-53020000D01*
X48125000Y-53500000D01*
G37*
%TO.C,C31*%
X32988108Y-57344423D02*
X33203780Y-57344423D01*
X32988108Y-58064423D02*
X33203780Y-58064423D01*
%TO.C,C8*%
X33440000Y-23007836D02*
X33440000Y-22792164D01*
X34160000Y-23007836D02*
X34160000Y-22792164D01*
%TO.C,C27*%
X32988108Y-38294423D02*
X33203780Y-38294423D01*
X32988108Y-39014423D02*
X33203780Y-39014423D01*
D11*
%TO.C,LED18*%
X79350000Y-51350000D02*
X79350000Y-55350000D01*
X79350000Y-55350000D02*
X80250000Y-55350000D01*
X80250000Y-51350000D02*
X79350000Y-51350000D01*
X80250000Y-51350000D02*
X81100000Y-51700000D01*
X81100000Y-55000000D02*
X80250000Y-55350000D01*
D10*
X79850000Y-54622500D02*
X79652010Y-54820490D01*
X79652010Y-54424510D01*
X79850000Y-54622500D01*
G36*
X79850000Y-54622500D02*
G01*
X79652010Y-54820490D01*
X79652010Y-54424510D01*
X79850000Y-54622500D01*
G37*
%TO.C,F1*%
X55813748Y-4890000D02*
X58586252Y-4890000D01*
X55813748Y-8310000D02*
X58586252Y-8310000D01*
%TO.C,TP2*%
X34650000Y-13600000D02*
G75*
G02*
X32750000Y-13600000I-950000J0D01*
G01*
X32750000Y-13600000D02*
G75*
G02*
X34650000Y-13600000I950000J0D01*
G01*
%TO.C,LED10*%
X29075000Y-72550000D02*
X28595000Y-72550000D01*
X29075000Y-72070000D01*
X29075000Y-72550000D01*
G36*
X29075000Y-72550000D02*
G01*
X28595000Y-72550000D01*
X29075000Y-72070000D01*
X29075000Y-72550000D01*
G37*
%TO.C,LED8*%
X67175000Y-53500000D02*
X66695000Y-53500000D01*
X67175000Y-53020000D01*
X67175000Y-53500000D01*
G36*
X67175000Y-53500000D02*
G01*
X66695000Y-53500000D01*
X67175000Y-53020000D01*
X67175000Y-53500000D01*
G37*
%TO.C,C48*%
X6392164Y-59990000D02*
X6607836Y-59990000D01*
X6392164Y-60710000D02*
X6607836Y-60710000D01*
%TO.C,C33*%
X71088108Y-57344423D02*
X71303780Y-57344423D01*
X71088108Y-58064423D02*
X71303780Y-58064423D01*
D11*
%TO.C,LED24*%
X3900000Y-39700000D02*
X4750000Y-39350000D01*
X4750000Y-43350000D02*
X3900000Y-43000000D01*
X4750000Y-43350000D02*
X5650000Y-43350000D01*
X5650000Y-39350000D02*
X4750000Y-39350000D01*
X5650000Y-43350000D02*
X5650000Y-39350000D01*
D10*
X5347990Y-40275490D02*
X5150000Y-40077500D01*
X5347990Y-39879510D01*
X5347990Y-40275490D01*
G36*
X5347990Y-40275490D02*
G01*
X5150000Y-40077500D01*
X5347990Y-39879510D01*
X5347990Y-40275490D01*
G37*
%TO.C,C26*%
X13938108Y-38294423D02*
X14153780Y-38294423D01*
X13938108Y-39014423D02*
X14153780Y-39014423D01*
%TO.C,U3*%
X3877208Y-22096364D02*
X3877208Y-23916364D01*
X3877208Y-23916364D02*
X3927208Y-23916364D01*
X3927208Y-22096364D02*
X3877208Y-22096364D01*
X5827208Y-22096364D02*
X5047208Y-22096364D01*
X6947208Y-23916364D02*
X6997208Y-23916364D01*
X6997208Y-22096364D02*
X6947208Y-22096364D01*
X6997208Y-23916364D02*
X6997208Y-22096364D01*
X7277208Y-24696364D02*
X6947208Y-24456364D01*
X7277208Y-24216364D01*
X7277208Y-24696364D01*
G36*
X7277208Y-24696364D02*
G01*
X6947208Y-24456364D01*
X7277208Y-24216364D01*
X7277208Y-24696364D01*
G37*
%TO.C,C35*%
X32988108Y-76394422D02*
X33203780Y-76394422D01*
X32988108Y-77114422D02*
X33203780Y-77114422D01*
D12*
%TO.C,SW2*%
X26489824Y-27749780D02*
X26489824Y-26949780D01*
X26489824Y-30599780D02*
X26489824Y-30839780D01*
X28489824Y-24949780D02*
X34389824Y-24949780D01*
X35889824Y-24949780D02*
X37439824Y-24949780D01*
X36939824Y-28999780D02*
X32375000Y-28999780D01*
X37439824Y-24949780D02*
X37439824Y-25179780D01*
X37439824Y-28029780D02*
X37439824Y-28499780D01*
X26489824Y-26949780D02*
G75*
G02*
X28489824Y-24949780I2000004J-4D01*
G01*
X30080678Y-30839780D02*
G75*
G02*
X32375000Y-28999780I2293456J-509332D01*
G01*
X37439824Y-28499780D02*
G75*
G02*
X36939824Y-28999780I-500001J1D01*
G01*
D10*
%TO.C,C43*%
X78482625Y-53503030D02*
X78698297Y-53503030D01*
X78482625Y-54223030D02*
X78698297Y-54223030D01*
%TO.C,U4*%
X45640000Y-8290000D02*
X45640000Y-10110000D01*
X45640000Y-10110000D02*
X45690000Y-10110000D01*
X45690000Y-8290000D02*
X45640000Y-8290000D01*
X48710000Y-10110000D02*
X48760000Y-10110000D01*
X48760000Y-8290000D02*
X48710000Y-8290000D01*
X48760000Y-10110000D02*
X48760000Y-8290000D01*
X49040000Y-10890000D02*
X48710000Y-10650000D01*
X49040000Y-10410000D01*
X49040000Y-10890000D01*
G36*
X49040000Y-10890000D02*
G01*
X48710000Y-10650000D01*
X49040000Y-10410000D01*
X49040000Y-10890000D01*
G37*
D12*
%TO.C,SW3*%
X45539824Y-27749780D02*
X45539824Y-26949780D01*
X45539824Y-30599780D02*
X45539824Y-30839780D01*
X47539824Y-24949780D02*
X53439824Y-24949780D01*
X54939824Y-24949780D02*
X56489824Y-24949780D01*
X55989824Y-28999780D02*
X51425000Y-28999780D01*
X56489824Y-24949780D02*
X56489824Y-25179780D01*
X56489824Y-28029780D02*
X56489824Y-28499780D01*
X45539824Y-26949780D02*
G75*
G02*
X47539824Y-24949780I2000004J-4D01*
G01*
X49130678Y-30839780D02*
G75*
G02*
X51425000Y-28999780I2293456J-509332D01*
G01*
X56489824Y-28499780D02*
G75*
G02*
X55989824Y-28999780I-500001J1D01*
G01*
D10*
%TO.C,LED14*%
X10025000Y-78100000D02*
X9545000Y-78100000D01*
X10025000Y-77620000D01*
X10025000Y-78100000D01*
G36*
X10025000Y-78100000D02*
G01*
X9545000Y-78100000D01*
X10025000Y-77620000D01*
X10025000Y-78100000D01*
G37*
D11*
%TO.C,LED16*%
X50000000Y-4350000D02*
X50000000Y-5250000D01*
X50350000Y-6100000D02*
X50000000Y-5250000D01*
X54000000Y-4350000D02*
X50000000Y-4350000D01*
X54000000Y-5250000D02*
X53650000Y-6100000D01*
X54000000Y-5250000D02*
X54000000Y-4350000D01*
D10*
X50727500Y-4850000D02*
X50529510Y-4652010D01*
X50925490Y-4652010D01*
X50727500Y-4850000D01*
G36*
X50727500Y-4850000D02*
G01*
X50529510Y-4652010D01*
X50925490Y-4652010D01*
X50727500Y-4850000D01*
G37*
%TO.C,C6*%
X31240000Y-22507836D02*
X31240000Y-22292164D01*
X31960000Y-22507836D02*
X31960000Y-22292164D01*
%TO.C,C2*%
X44492164Y-10540000D02*
X44707836Y-10540000D01*
X44492164Y-11260000D02*
X44707836Y-11260000D01*
%TO.C,LED11*%
X48125000Y-72550000D02*
X47645000Y-72550000D01*
X48125000Y-72070000D01*
X48125000Y-72550000D01*
G36*
X48125000Y-72550000D02*
G01*
X47645000Y-72550000D01*
X48125000Y-72070000D01*
X48125000Y-72550000D01*
G37*
D12*
%TO.C,SW9*%
X7439824Y-65849780D02*
X7439824Y-65049780D01*
X7439824Y-68699780D02*
X7439824Y-68939780D01*
X9439824Y-63049780D02*
X15339824Y-63049780D01*
X16839824Y-63049780D02*
X18389824Y-63049780D01*
X17889824Y-67099780D02*
X13325000Y-67099780D01*
X18389824Y-63049780D02*
X18389824Y-63279780D01*
X18389824Y-66129780D02*
X18389824Y-66599780D01*
X7439824Y-65049780D02*
G75*
G02*
X9439824Y-63049780I2000004J-4D01*
G01*
X11030678Y-68939780D02*
G75*
G02*
X13325000Y-67099780I2293456J-509332D01*
G01*
X18389824Y-66599780D02*
G75*
G02*
X17889824Y-67099780I-500001J1D01*
G01*
%TO.C,SW13*%
X36014824Y-84899780D02*
X36014824Y-84099780D01*
X36014824Y-87749780D02*
X36014824Y-87989780D01*
X38014824Y-82099780D02*
X43914824Y-82099780D01*
X45414824Y-82099780D02*
X46964824Y-82099780D01*
X46464824Y-86149780D02*
X41900000Y-86149780D01*
X46964824Y-82099780D02*
X46964824Y-82329780D01*
X46964824Y-85179780D02*
X46964824Y-85649780D01*
X36014824Y-84099780D02*
G75*
G02*
X38014824Y-82099780I2000004J-4D01*
G01*
X39605678Y-87989780D02*
G75*
G02*
X41900000Y-86149780I2293456J-509332D01*
G01*
X46964824Y-85649780D02*
G75*
G02*
X46464824Y-86149780I-500001J1D01*
G01*
D10*
%TO.C,TP4*%
X53550000Y-24000000D02*
G75*
G02*
X51650000Y-24000000I-950000J0D01*
G01*
X51650000Y-24000000D02*
G75*
G02*
X53550000Y-24000000I950000J0D01*
G01*
%TO.C,R8*%
X38446359Y-10520000D02*
X38753641Y-10520000D01*
X38446359Y-11280000D02*
X38753641Y-11280000D01*
%TO.C,R12*%
X70346359Y-22120000D02*
X70653641Y-22120000D01*
X70346359Y-22880000D02*
X70653641Y-22880000D01*
%TO.C,C42*%
X78477950Y-34404213D02*
X78693622Y-34404213D01*
X78477950Y-35124213D02*
X78693622Y-35124213D01*
%TO.C,J2*%
X19840000Y-42380000D02*
X19840000Y-39620000D01*
X37730000Y-39620000D02*
X19840000Y-39620000D01*
X37730000Y-42380000D02*
X19840000Y-42380000D01*
X37730000Y-42380000D02*
X37730000Y-39620000D01*
X39000000Y-42380000D02*
X40380000Y-42380000D01*
X40380000Y-42380000D02*
X40380000Y-41000000D01*
%TO.C,R4*%
X48320000Y-12153641D02*
X48320000Y-11846359D01*
X49080000Y-12153641D02*
X49080000Y-11846359D01*
%TO.C,C17*%
X22676191Y-33844572D02*
X23198695Y-33844572D01*
X22676191Y-35314572D02*
X23198695Y-35314572D01*
%TO.C,C36*%
X52038108Y-76394422D02*
X52253780Y-76394422D01*
X52038108Y-77114422D02*
X52253780Y-77114422D01*
%TO.C,C30*%
X13938108Y-57344423D02*
X14153780Y-57344423D01*
X13938108Y-58064423D02*
X14153780Y-58064423D01*
%TO.C,C13*%
X57392164Y-21140000D02*
X57607836Y-21140000D01*
X57392164Y-21860000D02*
X57607836Y-21860000D01*
D12*
%TO.C,SW12*%
X64589824Y-65849780D02*
X64589824Y-65049780D01*
X64589824Y-68699780D02*
X64589824Y-68939780D01*
X66589824Y-63049780D02*
X72489824Y-63049780D01*
X73989824Y-63049780D02*
X75539824Y-63049780D01*
X75039824Y-67099780D02*
X70475000Y-67099780D01*
X75539824Y-63049780D02*
X75539824Y-63279780D01*
X75539824Y-66129780D02*
X75539824Y-66599780D01*
X64589824Y-65049780D02*
G75*
G02*
X66589824Y-63049780I2000004J-4D01*
G01*
X68180678Y-68939780D02*
G75*
G02*
X70475000Y-67099780I2293456J-509332D01*
G01*
X75539824Y-66599780D02*
G75*
G02*
X75039824Y-67099780I-500001J1D01*
G01*
%TD*%
M02*
